<svg  viewBox="0 0 151 152" fill="none" xmlns="http://www.w3.org/2000/svg">
<path d="M116.496 52.0572H43.0137V49.1543C43.0139 48.3043 43.3516 47.4892 43.9527 46.8881C44.5537 46.2871 45.3688 45.9494 46.2187 45.9492H115.517C115.399 46.525 115.339 47.1112 115.339 47.699C115.339 47.7239 115.339 47.7457 115.339 47.7698H54.5044V50.2118H115.649L115.708 50.1952C115.902 50.8429 116.166 51.4674 116.496 52.0572Z" fill="#55DEFF"/>
<path d="M82.9906 99.6533C83.4599 99.6533 83.9194 99.7919 84.3103 100.053C84.7005 100.314 85.0048 100.685 85.1848 101.118C85.3649 101.552 85.4116 102.03 85.3197 102.491C85.2285 102.951 85.0026 103.374 84.6704 103.707C84.3382 104.039 83.9149 104.265 83.4546 104.356C82.9937 104.448 82.5161 104.401 82.0822 104.221C81.6484 104.041 81.2778 103.737 81.0172 103.346C80.7558 102.956 80.6172 102.496 80.6172 102.027C80.6172 101.397 80.868 100.794 81.3124 100.349C81.7576 99.9042 82.3609 99.6533 82.9906 99.6533Z" fill="#FFE8BB"/>
<path d="M125.819 63.9673V91.3099C125.255 91.5524 124.708 91.8289 124.178 92.1385L122.94 91.7197L122.972 91.624V58.7715L125.819 63.9673Z" fill="#FFE8BB"/>
<path d="M125.818 58.3489V63.9688L122.972 58.7714V57.4834C123.892 57.858 124.845 58.1477 125.818 58.3489Z" fill="#313553"/>
<path d="M120.314 106.356H115.123L117.548 97.6992H119.142C118.724 98.7372 118.509 99.8452 118.508 100.965C118.523 102.908 119.155 104.796 120.314 106.356Z" fill="#313553"/>
<path d="M117.55 97.7001L115.126 106.357H44.4906C43.3439 106.357 42.2442 105.901 41.4333 105.091C40.6226 104.28 40.167 103.18 40.167 102.034V81.3849L43.0135 77.749V94.4951C43.0137 95.3447 43.3514 96.1605 43.9525 96.7608C44.5535 97.3619 45.3686 97.7001 46.2185 97.7001H117.55ZM85.3697 102.028C85.3697 101.558 85.2311 101.099 84.9697 100.709C84.7091 100.318 84.3385 100.013 83.9047 99.8333C83.4708 99.654 82.9932 99.6066 82.5323 99.6977C82.072 99.7896 81.6487 100.016 81.3165 100.347C80.9836 100.679 80.7576 101.103 80.6657 101.563C80.5738 102.024 80.6205 102.501 80.7998 102.935C80.9798 103.369 81.2834 103.74 81.6743 104.002C82.0645 104.262 82.5232 104.402 82.9932 104.402C83.623 104.402 84.2263 104.152 84.6722 103.707C85.1174 103.261 85.3675 102.658 85.3675 102.028H85.3697Z" fill="#FFE8BB"/>
<path d="M116.527 60.0971C116.695 60.093 116.861 60.1224 117.017 60.1835C117.172 60.2447 117.315 60.3364 117.434 60.4533C117.554 60.5701 117.649 60.7097 117.714 60.8638C117.779 61.018 117.812 61.1835 117.812 61.3508C117.812 61.5181 117.779 61.6838 117.714 61.8379C117.649 61.9921 117.554 62.1316 117.434 62.2485C117.315 62.3653 117.172 62.457 117.017 62.5181C116.861 62.5793 116.695 62.6087 116.527 62.6046H87.6241C87.3763 62.6051 87.133 62.5318 86.9266 62.3942C86.7202 62.2565 86.5598 62.0607 86.4641 61.8314C86.3692 61.6022 86.3451 61.3499 86.3933 61.1065C86.4423 60.8632 86.562 60.6398 86.7375 60.4646C86.8535 60.3476 86.9914 60.2548 87.1435 60.1917C87.2957 60.1285 87.4591 60.0964 87.6241 60.0971H116.527Z" fill="#55DEFF"/>
<path d="M116.528 65.4561C116.861 65.4561 117.179 65.5882 117.414 65.8233C117.65 66.0586 117.782 66.3776 117.782 66.7102C117.782 67.0428 117.65 67.3618 117.414 67.597C117.179 67.8322 116.861 67.9643 116.528 67.9643H73.001C72.6682 67.9637 72.3493 67.8312 72.1141 67.5959C71.8788 67.3605 71.7465 67.0414 71.7461 66.7087C71.7475 66.3765 71.8802 66.0583 72.1153 65.8236C72.3504 65.589 72.6688 65.4568 73.001 65.4561H116.528Z" fill="#313553"/>
<path d="M116.528 70.8197C116.695 70.8156 116.862 70.845 117.018 70.9062C117.173 70.9674 117.315 71.059 117.435 71.1759C117.555 71.2927 117.65 71.4323 117.714 71.5864C117.779 71.7406 117.813 71.9062 117.813 72.0735C117.813 72.2408 117.779 72.4063 117.714 72.5605C117.65 72.7146 117.555 72.8542 117.435 72.9711C117.315 73.0879 117.173 73.1796 117.018 73.2408C116.862 73.302 116.695 73.3313 116.528 73.3273H102.248C101.915 73.327 101.597 73.1948 101.361 72.9594C101.126 72.7241 100.993 72.4051 100.993 72.0724C100.994 71.7399 101.126 71.4213 101.361 71.1865C101.597 70.9516 101.916 70.8197 102.248 70.8197H116.528Z" fill="#55DEFF"/>
<path d="M116.528 76.1787C116.861 76.1787 117.179 76.3105 117.414 76.5463C117.65 76.7813 117.782 77.0999 117.782 77.4329C117.782 77.7658 117.65 78.0844 117.414 78.3194C117.179 78.5552 116.861 78.687 116.528 78.687H70.5642C70.2313 78.6863 69.9122 78.5544 69.6768 78.3187C69.4414 78.0837 69.309 77.7643 69.3086 77.4314C69.3099 77.0992 69.4428 76.7806 69.6781 76.5463C69.9134 76.3113 70.2319 76.1795 70.5642 76.1787H116.528Z" fill="#313553"/>
<path d="M116.528 81.543C116.855 81.5513 117.166 81.6868 117.395 81.9211C117.623 82.1554 117.751 82.4695 117.751 82.7971C117.751 83.124 117.623 83.4381 117.395 83.6724C117.166 83.9066 116.855 84.0422 116.528 84.0505H92.4998C92.1669 84.0505 91.8475 83.9179 91.6125 83.6829C91.3767 83.4472 91.2449 83.1285 91.2441 82.7956C91.2449 82.4634 91.3782 82.1448 91.6132 81.9098C91.8482 81.6748 92.1676 81.543 92.4998 81.543H116.528Z" fill="#55DEFF"/>
<path d="M116.528 86.9046C116.695 86.9009 116.862 86.9302 117.017 86.9912C117.173 87.0523 117.315 87.1441 117.435 87.2609C117.554 87.3777 117.649 87.517 117.714 87.6714C117.779 87.8258 117.813 87.9908 117.813 88.1588C117.813 88.326 117.779 88.4909 117.714 88.6454C117.649 88.7998 117.554 88.9391 117.435 89.0559C117.315 89.1726 117.173 89.2645 117.017 89.3255C116.862 89.3865 116.695 89.4159 116.528 89.4122H109.56C109.227 89.4122 108.908 89.2796 108.672 89.0446C108.437 88.8088 108.305 88.4902 108.305 88.1573C108.305 87.8251 108.438 87.5065 108.674 87.2714C108.909 87.0372 109.227 86.9054 109.56 86.9046H116.528Z" fill="#313553"/>
<path d="M116.527 92.2666C116.86 92.2666 117.178 92.3984 117.413 92.6342C117.649 92.8692 117.781 93.1878 117.781 93.5207C117.781 93.8537 117.649 94.1723 117.413 94.4073C117.178 94.6431 116.86 94.7749 116.527 94.7749H77.8748C77.5419 94.7741 77.2225 94.6423 76.9875 94.4066C76.7517 94.1715 76.6199 93.8522 76.6191 93.5192C76.6206 93.1871 76.7532 92.8684 76.989 92.6342C77.224 92.3992 77.5426 92.2674 77.8748 92.2666H116.527Z" fill="#55DEFF"/>
<path d="M116.624 54.7432L115.408 57.2417H77.8752C77.5423 57.2417 77.2237 57.1096 76.9887 56.8743C76.7529 56.6392 76.6211 56.3202 76.6211 55.9875C76.6211 55.6549 76.7529 55.3359 76.9887 55.1008C77.2237 54.8655 77.5423 54.7334 77.8752 54.7334H116.527C116.561 54.7334 116.59 54.7409 116.624 54.7432Z" fill="#313553"/>
<path d="M44.4906 43.873H116.216C115.899 44.5344 115.665 45.2317 115.517 45.9497H46.2185C45.3686 45.95 44.5535 46.2877 43.9525 46.8887C43.3514 47.4897 43.0137 48.3048 43.0135 49.1548V59.386C42.1304 58.7318 41.1754 58.1805 40.167 57.7432V48.1966C40.167 47.6289 40.2788 47.0666 40.4961 46.5421C40.7134 46.0175 41.0319 45.5409 41.4333 45.1394C41.8348 44.7379 42.3115 44.4194 42.836 44.2022C43.3606 43.9849 43.9228 43.873 44.4906 43.873Z" fill="#FFE8BB"/>
<path d="M115.708 50.195L115.649 50.2115H54.5029V47.7695H115.341C115.345 48.5915 115.469 49.4084 115.708 50.195Z" fill="#313553"/>
<path d="M102.636 86.9043C102.963 86.9126 103.274 87.0482 103.503 87.2824C103.731 87.5167 103.859 87.8308 103.859 88.1577C103.859 88.4853 103.731 88.7994 103.503 89.0337C103.274 89.268 102.963 89.4035 102.636 89.4118H54.2344C53.9016 89.4118 53.5825 89.2793 53.3473 89.0443C53.112 88.8085 52.9797 88.4899 52.9795 88.1569C52.9805 87.8248 53.1131 87.5061 53.3483 87.2711C53.5834 87.0369 53.9021 86.9051 54.2344 86.9043H102.636Z" fill="#55DEFF"/>
<path d="M95.3237 70.8193C95.6506 70.8274 95.9617 70.963 96.1907 71.1972C96.4189 71.4315 96.5469 71.7458 96.5469 72.0731C96.5469 72.4004 96.4189 72.7147 96.1907 72.949C95.9617 73.1832 95.6506 73.3189 95.3237 73.3269H54.2344C53.9016 73.3267 53.5825 73.1945 53.3473 72.9591C53.112 72.7238 52.9797 72.4048 52.9795 72.072C52.9801 71.7396 53.1126 71.4209 53.3478 71.1861C53.5831 70.9512 53.902 70.8193 54.2344 70.8193H95.3237Z" fill="#313553"/>
<path d="M92.3282 112.575L93.3571 117.11H91.9041H74.7024H72.6279L75.0654 106.357L92.3282 112.575Z" fill="#FFE8BB"/>
<path d="M90.9196 106.357L92.3282 112.575L75.0654 106.357H90.9196Z" fill="#313553"/>
<path d="M85.5745 81.543C85.9014 81.5513 86.2125 81.6868 86.4415 81.9211C86.6697 82.1554 86.7977 82.4695 86.7977 82.7971C86.7977 83.124 86.6697 83.4381 86.4415 83.6724C86.2125 83.9066 85.9014 84.0422 85.5745 84.0505H54.2344C53.9016 84.0505 53.5825 83.9179 53.3473 83.6829C53.112 83.4472 52.9797 83.1285 52.9795 82.7956C52.9801 82.4634 53.1126 82.1448 53.3478 81.9098C53.5831 81.6748 53.902 81.543 54.2344 81.543H85.5745Z" fill="#313553"/>
<path d="M80.7 60.0971C80.8672 60.093 81.0336 60.1224 81.1896 60.1835C81.3447 60.2447 81.4871 60.3364 81.6069 60.4533C81.7266 60.5701 81.8215 60.7097 81.8863 60.8638C81.9511 61.018 81.985 61.1835 81.985 61.3508C81.985 61.5181 81.9511 61.6838 81.8863 61.8379C81.8215 61.9921 81.7266 62.1316 81.6069 62.2485C81.4871 62.3653 81.3447 62.457 81.1896 62.5181C81.0336 62.5793 80.8672 62.6087 80.7 62.6046H54.2341C54.0669 62.6087 53.9005 62.5793 53.7448 62.5181C53.5891 62.457 53.4473 62.3653 53.3275 62.2485C53.2078 62.1316 53.1126 61.9921 53.0477 61.8379C52.9827 61.6838 52.9492 61.5181 52.9492 61.3508C52.9492 61.1835 52.9827 61.018 53.0477 60.8638C53.1126 60.7097 53.2078 60.5701 53.3275 60.4533C53.4473 60.3364 53.5891 60.2447 53.7448 60.1835C53.9005 60.1224 54.0669 60.093 54.2341 60.0971H80.7Z" fill="#313553"/>
<path d="M70.9511 54.7334C71.2837 54.7334 71.6027 54.8655 71.8379 55.1008C72.0731 55.3359 72.2052 55.6549 72.2052 55.9875C72.2052 56.3202 72.0731 56.6392 71.8379 56.8743C71.6027 57.1096 71.2837 57.2417 70.9511 57.2417H54.2344C53.9016 57.2415 53.5825 57.1092 53.3473 56.874C53.112 56.6386 52.9797 56.3196 52.9795 55.9868C52.9803 55.6544 53.1128 55.3358 53.3481 55.1008C53.5832 54.866 53.902 54.7338 54.2344 54.7334H70.9511Z" fill="#55DEFF"/>
<path d="M70.9511 92.2666C71.2837 92.2666 71.6027 92.3984 71.8379 92.6342C72.0731 92.8692 72.2052 93.1878 72.2052 93.5207C72.2052 93.8537 72.0731 94.1723 71.8379 94.4073C71.6027 94.6431 71.2837 94.7749 70.9511 94.7749H54.2344C53.9016 94.7741 53.5825 94.6423 53.3472 94.4066C53.112 94.1715 52.9797 93.8522 52.9795 93.5192C52.9805 93.1871 53.1131 92.8684 53.3483 92.6334C53.5834 92.3992 53.9021 92.2674 54.2344 92.2666H70.9511Z" fill="#313553"/>
<path d="M66.0768 65.4561C66.4095 65.4561 66.7285 65.5882 66.9637 65.8233C67.1989 66.0586 67.331 66.3776 67.331 66.7102C67.331 67.0428 67.1989 67.3618 66.9637 67.597C66.7285 67.8322 66.4095 67.9643 66.0768 67.9643H54.2344C53.9016 67.9639 53.5825 67.8315 53.3472 67.5961C53.112 67.3606 52.9797 67.0415 52.9795 66.7087C52.9805 66.3764 53.1131 66.058 53.3483 65.8232C53.5834 65.5885 53.9021 65.4564 54.2344 65.4561H66.0768Z" fill="#55DEFF"/>
<path d="M63.6394 76.1787C63.972 76.1787 64.291 76.3105 64.5262 76.5463C64.7614 76.7813 64.8935 77.0999 64.8935 77.4329C64.8935 77.7658 64.7614 78.0844 64.5262 78.3194C64.291 78.5552 63.972 78.687 63.6394 78.687H54.2344C53.9016 78.6863 53.5825 78.5544 53.3472 78.3187C53.112 78.0837 52.9797 77.7643 52.9795 77.4314C52.9805 77.0992 53.1131 76.7806 53.3483 76.5463C53.5834 76.3113 53.9021 76.1795 54.2344 76.1787H63.6394Z" fill="#55DEFF"/>
<path d="M47.2598 65.8428C47.425 65.9045 47.5693 66.012 47.6754 66.1529C47.7816 66.2937 47.8453 66.462 47.859 66.6378C47.8728 66.8137 47.8361 66.9898 47.7531 67.1455C47.6702 67.3011 47.5445 67.4299 47.3908 67.5165C47.3908 67.4653 47.3908 67.4118 47.3908 67.3583C47.3908 67.234 47.3908 67.1097 47.381 66.9854V66.9561C47.365 66.5828 47.3245 66.2108 47.2598 65.8428Z" fill="#313553"/>
<path d="M46.9281 55.0537C47.1129 55.0531 47.2938 55.1073 47.4478 55.2096C47.6018 55.3119 47.722 55.4575 47.7932 55.6282C47.8643 55.7988 47.8832 55.9867 47.8476 56.1681C47.8119 56.3494 47.7231 56.5161 47.5926 56.647C47.4621 56.778 47.2957 56.8673 47.1144 56.9035C46.9331 56.9398 46.7452 56.9215 46.5744 56.8509C46.4035 56.7803 46.2575 56.6606 46.1547 56.5069C46.0519 56.3533 45.9971 56.1726 45.9971 55.9877C45.9971 55.7405 46.0951 55.5034 46.2696 55.3283C46.444 55.1532 46.6809 55.0545 46.9281 55.0537Z" fill="#313553"/>
<path d="M46.9281 60.415C47.1128 60.4146 47.2934 60.4689 47.4472 60.5712C47.6009 60.6735 47.7209 60.8191 47.7919 60.9895C47.8629 61.1601 47.8817 61.3478 47.8459 61.5289C47.8102 61.7102 47.7215 61.8766 47.5911 62.0074C47.4606 62.1382 47.2943 62.2273 47.1132 62.2634C46.9321 62.2996 46.7444 62.2813 46.5737 62.2107C46.4031 62.1402 46.2572 62.0206 46.1545 61.867C46.0518 61.7135 45.9971 61.533 45.9971 61.3483C45.9971 61.1012 46.0951 60.8641 46.2696 60.6891C46.4441 60.5142 46.6809 60.4156 46.9281 60.415Z" fill="#313553"/>
<path d="M46.9278 71.1378C47.1754 71.1378 47.4127 71.2361 47.5878 71.4112C47.7627 71.5862 47.8611 71.8236 47.8611 72.0711C47.8611 72.3186 47.7627 72.556 47.5878 72.731C47.4127 72.9061 47.1754 73.0044 46.9278 73.0044C46.7288 72.9997 46.5365 72.9324 46.378 72.812C46.2195 72.6916 46.103 72.5244 46.045 72.334L45.917 72.2534C46.1369 71.9117 46.3347 71.5562 46.509 71.1891L46.5505 71.2079C46.6281 71.1311 46.8638 71.1378 46.9278 71.1378Z" fill="#313553"/>
<path d="M46.9281 81.8613C47.1129 81.8606 47.2938 81.9148 47.4478 82.0173C47.6018 82.1197 47.722 82.2651 47.7932 82.4361C47.8643 82.6063 47.8832 82.7946 47.8476 82.9754C47.8119 83.1569 47.7231 83.3241 47.5926 83.4544C47.4621 83.5855 47.2957 83.6751 47.1144 83.7113C46.9331 83.7474 46.7452 83.7294 46.5744 83.6586C46.4035 83.5878 46.2575 83.468 46.1547 83.3143C46.0519 83.1607 45.9971 82.9799 45.9971 82.7954C45.9971 82.5483 46.0951 82.311 46.2696 82.1363C46.444 81.9608 46.6809 81.8621 46.9281 81.8613Z" fill="#313553"/>
<path d="M46.9281 87.2246C47.1128 87.2239 47.2934 87.2789 47.4472 87.3805C47.6009 87.483 47.7209 87.6284 47.7919 87.7993C47.8629 87.9696 47.8817 88.1571 47.8459 88.3387C47.8102 88.5194 47.7215 88.6859 47.5911 88.817C47.4606 88.948 47.2943 89.0369 47.1132 89.0731C46.9321 89.1092 46.7444 89.0911 46.5737 89.0203C46.4031 88.9495 46.2572 88.8298 46.1545 88.6769C46.0518 88.5232 45.9971 88.3424 45.9971 88.1579C45.9971 87.9108 46.0951 87.6735 46.2696 87.4988C46.4441 87.324 46.6809 87.2254 46.9281 87.2246Z" fill="#313553"/>
<path d="M46.9281 92.5859C47.113 92.5852 47.2938 92.6394 47.4479 92.7419C47.6019 92.8443 47.7221 92.9897 47.7932 93.1607C47.8644 93.3309 47.8833 93.5192 47.8475 93.7007C47.8117 93.8823 47.7229 94.0487 47.5924 94.1798C47.4617 94.3109 47.2953 94.3997 47.114 94.4359C46.9327 94.4721 46.7447 94.454 46.5738 94.3832C46.403 94.3124 46.257 94.1926 46.1543 94.0389C46.0517 93.8845 45.9969 93.7038 45.9971 93.5192C45.9971 93.2721 46.0951 93.0349 46.2696 92.8601C46.4441 92.6854 46.6809 92.5867 46.9281 92.5859Z" fill="#313553"/>
<path d="M41.7242 76.1836L43.0801 76.8246L43.0115 76.9707V77.7488L40.165 81.3847V76.9707C40.7004 76.7402 41.2212 76.4774 41.7242 76.1836Z" fill="#313553"/>
<path d="M37.0832 77.9717L37.1095 78.0914C35.8501 80.9477 34.2472 83.7822 32.3694 85.3595C31.7597 85.8709 31.1732 86.3891 30.6098 86.9142C30.3974 83.7995 30.1684 80.6479 29.9492 78.0914C31.0293 78.288 32.125 78.3867 33.2228 78.386C34.5208 78.3882 35.8152 78.2489 37.0832 77.9717Z" fill="#313553"/>
<path d="M28.2549 92.2491C28.7182 91.1637 29.4326 90.2041 30.3391 89.4486C30.4777 89.3416 30.6163 89.2339 30.7579 89.1314C32.9944 87.5587 35.4314 86.2917 38.0041 85.3652C37.9355 85.5114 35.318 91.056 32.8067 93.1741C32.2244 93.6637 31.6414 94.1028 31.0908 94.5299C30.532 94.9547 30.0034 95.418 29.509 95.9166C28.9631 96.4537 28.5314 97.0962 28.2396 97.8042C27.9477 98.5123 27.8017 99.2723 27.8105 100.038V100.163H26.7363V100.038C26.75 98.7247 26.8724 97.4148 27.1024 96.1215C27.3215 94.7875 27.7088 93.4859 28.2549 92.2491Z" fill="#55DEFF"/>
<path d="M31.3561 100.04V100.164H30.05C29.9865 98.7358 29.8038 97.316 29.5039 95.918C29.9984 95.4193 30.527 94.9561 31.0857 94.5312C31.2537 97.3589 31.3561 99.474 31.3561 100.04Z" fill="#313553"/>
<path d="M30.7565 89.1302C30.6149 89.2349 30.4763 89.3426 30.3377 89.4496C29.4312 90.2051 28.7169 91.1647 28.2535 92.2501C27.9635 91.7982 27.605 91.2973 27.1907 90.7391C26.228 89.4375 24.9807 87.8535 23.7009 86.0932C22.1599 84.0293 20.7842 81.8471 19.5867 79.5663C19.5867 79.5663 19.5792 79.5543 19.5671 79.5324C19.3871 79.1739 19.2161 78.8184 19.0534 78.4576C13.7227 66.7002 17.1764 54.9775 17.1764 54.9775C19.0039 56.6445 20.7185 58.4311 22.3089 60.3255C21.3098 61.2095 20.5047 62.2908 19.9444 63.5014C19.3841 64.712 19.0807 66.0256 19.0534 67.3593C19.0534 72.5725 23.7009 76.9428 29.9498 78.093C30.169 80.6495 30.398 83.801 30.6104 86.9157C30.6594 87.6584 30.7106 88.3988 30.7565 89.1302Z" fill="#55DEFF"/>
<path d="M26.5773 91.6641C26.5773 91.6641 26.9773 94.0451 27.1046 96.1195C26.8746 97.4128 26.7521 98.7227 26.7385 100.036V100.161H25.6682V100.036C26.0448 97.516 25.6584 94.6793 25.6682 93.3385C25.9395 92.7638 26.2431 92.2049 26.5773 91.6641Z" fill="#313553"/>
<path d="M27.1914 90.7405C26.9774 91.0418 26.7726 91.3521 26.5775 91.6662C26.2432 92.2071 25.9398 92.766 25.6683 93.3407C24.6804 95.4761 24.1611 97.7984 24.1452 100.151V100.163H23.7159C23.6899 97.5475 23.4199 94.9406 22.9092 92.375C23.1555 91.0855 23.2858 89.6234 23.4432 88.1313C23.514 87.4586 23.5894 86.7792 23.682 86.1088L23.7016 86.0938C24.9813 87.8556 26.2287 89.4374 27.1914 90.7405Z" fill="#55DEFF"/>
<path d="M23.7154 100.163H21.8173C21.693 93.7038 17.3257 91.664 12.9531 87.9792C8.43369 84.1746 3.73047 74.1309 3.73047 74.1309C8.43165 75.824 12.8743 78.1637 16.9302 81.0818C17.0566 81.1887 17.1884 81.2897 17.3249 81.3831C20.4886 83.8642 22.0997 88.349 22.9087 92.3728C23.4196 94.9384 23.6896 97.5469 23.7154 100.163Z" fill="#55DEFF"/>
<path d="M23.7009 86.0936L23.6813 86.1087C23.5886 86.779 23.5133 87.4585 23.4425 88.1311C23.0086 85.253 20.703 83.7224 17.3254 81.3851C17.1936 81.2826 17.0641 81.1802 16.93 81.0838C13.8665 78.5152 12.9092 72.249 12.9092 72.249C16.4163 74.3106 19.3042 79.09 19.5671 79.5336C19.5791 79.5555 19.5867 79.5675 19.5867 79.5675C20.7842 81.8476 22.1598 84.0297 23.7009 86.0936Z" fill="#313553"/>
<path d="M40.167 76.9703C40.7016 76.7398 41.2216 76.4769 41.7239 76.1832L43.0798 76.8242L49.7083 79.9441L45.4148 72.9811C45.5948 72.7446 45.7658 72.5036 45.9218 72.2543C46.1419 71.9124 46.3396 71.5566 46.5138 71.1892C47.0682 70.0427 47.3673 68.7897 47.3906 67.5164C47.3906 67.4652 47.3906 67.4117 47.3906 67.3582C47.3906 67.2339 47.3906 67.1096 47.3808 66.9854" stroke="#313553" stroke-width="0.243673" stroke-linecap="round" stroke-linejoin="round"/>
<path d="M47.3838 66.9558C47.3668 66.5823 47.3252 66.2104 47.2596 65.8425C46.7233 63.2259 45.2035 60.9148 43.0135 59.3857C42.1304 58.7314 41.1754 58.1801 40.167 57.7429C37.975 56.7971 35.6109 56.3159 33.2237 56.3298C29.2136 56.2443 25.3178 57.6693 22.3092 60.322C21.3101 61.2058 20.505 62.2872 19.9446 63.4978C19.3844 64.7084 19.081 66.022 19.0537 67.3557C19.0537 72.5689 23.7012 76.9392 29.9501 78.0893C31.0302 78.2859 32.1258 78.3846 33.2237 78.3839C34.5217 78.3861 35.816 78.2468 37.084 77.9696C38.1419 77.7383 39.1744 77.4039 40.167 76.9708" stroke="#313553" stroke-width="0.243673" stroke-linecap="round" stroke-linejoin="round"/>
<path d="M116.626 54.743L117.318 53.3201C117.012 52.9203 116.735 52.4983 116.49 52.0577C116.161 51.4677 115.898 50.8433 115.706 50.1956C115.468 49.4091 115.344 48.5921 115.34 47.7702C115.34 47.7461 115.34 47.7243 115.34 47.6994C115.34 47.1117 115.398 46.5255 115.516 45.9496C115.664 45.2317 115.898 44.5344 116.213 43.8729C118.212 39.6668 123.41 36.6689 129.508 36.6689C137.331 36.6689 143.676 41.6064 143.676 47.6994C143.676 53.7924 137.331 58.7284 129.508 58.7284C128.268 58.7305 127.031 58.6022 125.817 58.3457C124.844 58.1463 123.891 57.8574 122.971 57.4825C122.295 57.2105 121.641 56.8895 121.012 56.5221L114.384 59.3498L115.413 57.2407L116.631 54.7422" stroke="#313553" stroke-width="0.243673" stroke-linecap="round" stroke-linejoin="round"/>
<path d="M122.939 91.7212L118.701 90.2855L120.487 95.3428C119.933 96.0629 119.48 96.856 119.142 97.6996C118.724 98.7376 118.509 99.8464 118.508 100.965C118.523 102.908 119.156 104.797 120.316 106.357C122.74 109.72 127.369 111.994 132.679 111.994C140.503 111.994 146.847 107.056 146.847 100.965C146.847 94.8742 140.503 89.9368 132.679 89.9368C130.322 89.9247 127.988 90.3932 125.819 91.3137C125.255 91.5562 124.708 91.8327 124.178 92.1422L122.939 91.7212Z" stroke="#313553" stroke-width="0.243673" stroke-linecap="round" stroke-linejoin="round"/>
<path d="M40.167 57.7432V48.1966C40.167 47.05 40.6226 45.9503 41.4333 45.1394C42.2442 44.3286 43.3439 43.873 44.4906 43.873H116.216" stroke="#313553" stroke-width="0.243673" stroke-linecap="round" stroke-linejoin="round"/>
<path d="M75.0676 106.356H44.4906C43.3439 106.356 42.2442 105.9 41.4333 105.09C40.6226 104.278 40.167 103.179 40.167 102.032V76.9697" stroke="#313553" stroke-width="0.243673" stroke-linecap="round" stroke-linejoin="round"/>
<path d="M120.314 106.357H115.123H90.9189" stroke="#313553" stroke-width="0.243673" stroke-linecap="round" stroke-linejoin="round"/>
<path d="M125.818 58.3477V63.9676V91.3132" stroke="#313553" stroke-width="0.243673" stroke-linecap="round" stroke-linejoin="round"/>
<path d="M43.0137 59.3885V49.1543C43.0139 48.3043 43.3516 47.4892 43.9527 46.8881C44.5537 46.2871 45.3688 45.9494 46.2187 45.9492H115.517" stroke="#313553" stroke-width="0.243673" stroke-linecap="round" stroke-linejoin="round"/>
<path d="M119.143 97.6989H46.2187C45.3688 97.6989 44.5537 97.3607 43.9527 96.7596C43.3516 96.1593 43.0139 95.3435 43.0137 94.4939V76.9697" stroke="#313553" stroke-width="0.243673" stroke-linecap="round" stroke-linejoin="round"/>
<path d="M122.972 57.4863V58.7729V91.6261" stroke="#313553" stroke-width="0.243673" stroke-linecap="round" stroke-linejoin="round"/>
<path d="M43.0137 52.0576H116.493" stroke="#313553" stroke-width="0.243673" stroke-linecap="round" stroke-linejoin="round"/>
<path d="M115.65 50.2115H54.5049V47.7695H115.321" stroke="#313553" stroke-width="0.243673" stroke-linecap="round" stroke-linejoin="round"/>
<path d="M85.3671 102.027C85.3671 102.497 85.2285 102.956 84.9679 103.346C84.7073 103.737 84.3359 104.042 83.902 104.222C83.4682 104.402 82.9914 104.449 82.5304 104.358C82.0694 104.266 81.6461 104.041 81.3139 103.709C80.9817 103.377 80.755 102.954 80.6631 102.493C80.5712 102.033 80.6179 101.554 80.7972 101.121C80.9765 100.687 81.2808 100.315 81.6717 100.054C82.0619 99.7934 82.5206 99.6533 82.9906 99.6533C83.6203 99.6533 84.2244 99.9026 84.6704 100.348C85.1155 100.793 85.3663 101.397 85.3671 102.027Z" stroke="#313553" stroke-width="0.243673" stroke-linecap="round" stroke-linejoin="round"/>
<path d="M72.6279 117.11L75.0654 106.357H90.9196L92.3282 112.575L93.3571 117.11" stroke="#313553" stroke-width="0.243673" stroke-linecap="round" stroke-linejoin="round"/>
<path d="M91.9049 117.11H74.7031" stroke="#313553" stroke-width="0.243673" stroke-linecap="round" stroke-linejoin="round"/>
<path d="M75.0654 106.357L92.3282 112.575" stroke="#313553" stroke-width="0.243673" stroke-linecap="round" stroke-linejoin="round"/>
<path d="M66.0703 117.11H69.829" stroke="#313553" stroke-width="0.243673" stroke-linecap="round" stroke-linejoin="round"/>
<path d="M70.9443 117.11H72.6278H74.7023" stroke="#313553" stroke-width="0.243673" stroke-linecap="round" stroke-linejoin="round"/>
<path d="M12.4512 117.11H16.2098" stroke="#313553" stroke-width="0.243673" stroke-linecap="round" stroke-linejoin="round"/>
<path d="M30.8916 117.11H40.582" stroke="#313553" stroke-width="0.243673" stroke-linecap="round" stroke-linejoin="round"/>
<path d="M17.3252 117.11H22.4088" stroke="#313553" stroke-width="0.243673" stroke-linecap="round" stroke-linejoin="round"/>
<path d="M91.9043 117.11H93.3573H95.6622" stroke="#313553" stroke-width="0.243673" stroke-linecap="round" stroke-linejoin="round"/>
<path d="M96.7793 117.11H100.538" stroke="#313553" stroke-width="0.243673" stroke-linecap="round" stroke-linejoin="round"/>
<path d="M49.7988 50.4951L52.2921 49.0572L49.7988 47.6162" stroke="#313553" stroke-width="0.243673" stroke-linecap="round" stroke-linejoin="round"/>
<path d="M48.1879 47.6162L45.6924 49.0572L48.1879 50.4951" stroke="#313553" stroke-width="0.243673" stroke-linecap="round" stroke-linejoin="round"/>
<path d="M122.972 58.7715L125.818 63.9673" stroke="#313553" stroke-width="0.243673" stroke-linecap="round" stroke-linejoin="round"/>
<path d="M117.548 97.6992L115.123 106.356" stroke="#313553" stroke-width="0.243673" stroke-linecap="round" stroke-linejoin="round"/>
<path d="M43.0135 77.749L40.167 81.3849" stroke="#313553" stroke-width="0.243673" stroke-linecap="round" stroke-linejoin="round"/>
<path d="M30.8903 117.109H22.4088C21.0606 117.109 19.7675 116.573 18.8142 115.62C17.8608 114.667 17.3252 113.373 17.3252 112.025V100.163H35.9739V112.025C35.9738 113.373 35.4381 114.666 34.4848 115.62C33.5315 116.573 32.2385 117.109 30.8903 117.109Z" stroke="#313553" stroke-width="0.243673" stroke-linecap="round" stroke-linejoin="round"/>
<path d="M23.7154 100.163C23.6896 97.5469 23.4196 94.9384 22.9087 92.3728C22.0997 88.349 20.4886 83.8612 17.3257 81.3831C17.1939 81.2806 17.0643 81.1782 16.9302 81.0818C12.8743 78.1637 8.43165 75.824 3.73047 74.1309C3.73047 74.1309 8.43444 84.1746 12.9531 87.9792C17.3257 91.664 21.6907 93.7038 21.8173 100.163" stroke="#313553" stroke-width="0.243673" stroke-linecap="round" stroke-linejoin="round"/>
<path d="M25.6676 93.3408C24.6797 95.4763 24.1603 97.7985 24.1445 100.151" stroke="#313553" stroke-width="0.243673" stroke-linecap="round" stroke-linejoin="round"/>
<path d="M27.191 90.7383C26.9771 91.0396 26.7722 91.3499 26.5771 91.664C26.2429 92.2048 25.9394 92.7637 25.668 93.3385" stroke="#313553" stroke-width="0.243673" stroke-linecap="round" stroke-linejoin="round"/>
<path d="M37.111 78.0928C35.8516 80.9491 34.2487 83.7835 32.3709 85.3608C31.7613 85.8722 31.1748 86.3905 30.6113 86.9155" stroke="#313553" stroke-width="0.243673" stroke-linecap="round" stroke-linejoin="round"/>
<path d="M22.9092 92.3736C23.1555 91.0841 23.2858 89.622 23.4432 88.1299C23.514 87.4572 23.5894 86.7778 23.682 86.1074" stroke="#313553" stroke-width="0.243673" stroke-linecap="round" stroke-linejoin="round"/>
<path d="M38.0084 85.3604C37.9376 85.511 35.3201 91.0533 32.8111 93.1715C32.2288 93.6611 31.6458 94.1002 31.0952 94.5273C30.5364 94.9521 30.0079 95.4154 29.5134 95.914C28.9676 96.4511 28.5358 97.0936 28.2439 97.8016C27.9521 98.5097 27.8062 99.2697 27.8148 100.036" stroke="#313553" stroke-width="0.243673" stroke-linecap="round" stroke-linejoin="round"/>
<path d="M30.7568 89.1295C32.9934 87.5567 35.4304 86.2898 38.003 85.3633" stroke="#313553" stroke-width="0.243673" stroke-linecap="round" stroke-linejoin="round"/>
<path d="M26.7363 100.04C26.75 98.7268 26.8724 97.4169 27.1024 96.1236C27.3217 94.7903 27.7089 93.4895 28.2549 92.2534C28.7182 91.168 29.4326 90.2084 30.3391 89.4529C30.4777 89.3459 30.6163 89.2382 30.7579 89.1357" stroke="#313553" stroke-width="0.243673" stroke-linecap="round" stroke-linejoin="round"/>
<path d="M29.5039 95.918C29.8038 97.316 29.9865 98.7358 30.05 100.164" stroke="#313553" stroke-width="0.243673" stroke-linecap="round" stroke-linejoin="round"/>
<path d="M19.5869 79.5684C20.7844 81.8492 22.1601 84.0313 23.7011 86.0952C24.9816 87.8555 26.2282 89.4396 27.1909 90.7412C27.6052 91.2993 27.9637 91.8033 28.2537 92.2522" stroke="#313553" stroke-width="0.243673" stroke-linecap="round" stroke-linejoin="round"/>
<path d="M22.3089 60.3246C20.7185 58.4301 19.0039 56.6435 17.1764 54.9766C17.1764 54.9766 13.7227 66.6992 19.0534 78.4566C19.2161 78.8174 19.3871 79.1729 19.5671 79.5315" stroke="#313553" stroke-width="0.243673" stroke-linecap="round" stroke-linejoin="round"/>
<path d="M30.7559 89.134C30.71 88.4003 30.6588 87.6599 30.6098 86.9165C30.3974 83.8018 30.1684 80.6502 29.9492 78.0938" stroke="#313553" stroke-width="0.243673" stroke-linecap="round" stroke-linejoin="round"/>
<path d="M31.356 100.04C31.356 99.474 31.2536 97.3589 31.0879 94.5312" stroke="#313553" stroke-width="0.243673" stroke-linecap="round" stroke-linejoin="round"/>
<path d="M19.5867 79.5695C19.5867 79.5695 19.5791 79.5574 19.5671 79.5356C19.3042 79.0919 16.4163 74.3126 12.9092 72.251C12.9092 72.251 13.8665 78.5172 16.93 81.0857C17.0564 81.1927 17.1885 81.2936 17.3254 81.387C20.703 83.7221 23.0086 85.2549 23.4425 88.1331" stroke="#313553" stroke-width="0.243673" stroke-linecap="round" stroke-linejoin="round"/>
<path d="M25.6682 93.3398C25.6584 94.6806 26.0448 97.5173 25.6682 100.038" stroke="#313553" stroke-width="0.243673" stroke-linecap="round" stroke-linejoin="round"/>
<path d="M26.5771 91.6641C26.5771 91.6641 26.9771 94.0451 27.1044 96.1195" stroke="#313553" stroke-width="0.243673" stroke-linecap="round" stroke-linejoin="round"/>
<path d="M51.0449 53.8008V95.0189" stroke="#313553" stroke-width="0.243673" stroke-linecap="round" stroke-linejoin="round"/>
<path d="M70.9511 57.2417H54.2344C53.9016 57.2415 53.5825 57.1092 53.3473 56.874C53.112 56.6386 52.9797 56.3196 52.9795 55.9868C52.9803 55.6544 53.1128 55.3358 53.3481 55.1008C53.5832 54.866 53.902 54.7338 54.2344 54.7334H70.9511C71.2837 54.7334 71.6027 54.8655 71.8379 55.1008C72.0731 55.3359 72.2052 55.6549 72.2052 55.9875C72.2052 56.3202 72.0731 56.6392 71.8379 56.8743C71.6027 57.1096 71.2837 57.2417 70.9511 57.2417Z" stroke="#313553" stroke-width="0.243673" stroke-linecap="round" stroke-linejoin="round"/>
<path d="M116.626 54.7432C116.59 54.7432 116.561 54.7334 116.527 54.7334H77.8752C77.5423 54.7334 77.2237 54.8655 76.9887 55.1008C76.7529 55.3359 76.6211 55.6549 76.6211 55.9875C76.6211 56.3202 76.7529 56.6392 76.9887 56.8743C77.2237 57.1096 77.5423 57.2417 77.8752 57.2417H115.408L116.626 54.7432Z" stroke="#313553" stroke-width="0.243673" stroke-linecap="round" stroke-linejoin="round"/>
<path d="M47.8611 55.9877C47.8608 56.172 47.8059 56.3521 47.7033 56.5053C47.6006 56.6584 47.4549 56.7777 47.2845 56.8481C47.1142 56.9184 46.9268 56.9367 46.746 56.9007C46.5653 56.8646 46.3992 56.7757 46.269 56.6453C46.1386 56.5149 46.0499 56.3488 46.014 56.1681C45.9781 55.9872 45.9965 55.7998 46.067 55.6295C46.1375 55.4592 46.2569 55.3136 46.4101 55.2111C46.5633 55.1086 46.7435 55.0539 46.9278 55.0537C47.0505 55.0535 47.172 55.0775 47.2854 55.1244C47.3987 55.1713 47.5017 55.2401 47.5885 55.3268C47.6752 55.4136 47.7439 55.5167 47.7907 55.6301C47.8374 55.7435 47.8614 55.865 47.8611 55.9877Z" stroke="#313553" stroke-width="0.243673" stroke-linecap="round" stroke-linejoin="round"/>
<path d="M80.7 62.6046H54.2341C54.0669 62.6087 53.9005 62.5793 53.7448 62.5181C53.5891 62.457 53.4473 62.3653 53.3275 62.2485C53.2078 62.1316 53.1126 61.9921 53.0477 61.8379C52.9827 61.6838 52.9492 61.5181 52.9492 61.3508C52.9492 61.1835 52.9827 61.018 53.0477 60.8638C53.1126 60.7097 53.2078 60.5701 53.3275 60.4533C53.4473 60.3364 53.5891 60.2447 53.7448 60.1835C53.9005 60.1224 54.0669 60.093 54.2341 60.0971H80.7C80.8672 60.093 81.0336 60.1224 81.1896 60.1835C81.3447 60.2447 81.4871 60.3364 81.6069 60.4533C81.7266 60.5701 81.8215 60.7097 81.8863 60.8638C81.9511 61.018 81.985 61.1835 81.985 61.3508C81.985 61.5181 81.9511 61.6838 81.8863 61.8379C81.8215 61.9921 81.7266 62.1316 81.6069 62.2485C81.4871 62.3653 81.3447 62.457 81.1896 62.5181C81.0336 62.5793 80.8672 62.6087 80.7 62.6046Z" stroke="#313553" stroke-width="0.243673" stroke-linecap="round" stroke-linejoin="round"/>
<path d="M116.527 62.6046H87.6241C87.3763 62.6051 87.133 62.5318 86.9266 62.3942C86.7202 62.2565 86.5598 62.0607 86.4641 61.8314C86.3692 61.6022 86.3451 61.3499 86.3933 61.1065C86.4423 60.8632 86.562 60.6398 86.7375 60.4646C86.8535 60.3476 86.9914 60.2548 87.1435 60.1917C87.2957 60.1285 87.4591 60.0964 87.6241 60.0971H116.527C116.695 60.093 116.861 60.1224 117.017 60.1835C117.172 60.2447 117.315 60.3364 117.434 60.4533C117.554 60.5701 117.649 60.7097 117.714 60.8638C117.779 61.018 117.812 61.1835 117.812 61.3508C117.812 61.5181 117.779 61.6838 117.714 61.8379C117.649 61.9921 117.554 62.1316 117.434 62.2485C117.315 62.3653 117.172 62.457 117.017 62.5181C116.861 62.5793 116.695 62.6087 116.527 62.6046Z" stroke="#313553" stroke-width="0.243673" stroke-linecap="round" stroke-linejoin="round"/>
<path d="M47.8611 61.3483C47.8609 61.5326 47.8062 61.7129 47.7036 61.8661C47.6011 62.0193 47.4555 62.1387 47.2851 62.2092C47.1147 62.2797 46.9273 62.2981 46.7465 62.2621C46.5657 62.2261 46.3996 62.1372 46.2692 62.0069C46.1388 61.8766 46.0501 61.7105 46.0141 61.5296C45.978 61.3488 45.9964 61.1613 46.0669 60.991C46.1374 60.8207 46.2568 60.675 46.41 60.5725C46.5632 60.47 46.7435 60.4152 46.9278 60.415C47.0504 60.4148 47.1719 60.4388 47.2852 60.4856C47.3985 60.5325 47.5015 60.6012 47.5882 60.6879C47.6749 60.7746 47.7436 60.8776 47.7904 60.9909C47.8373 61.1043 47.8613 61.2257 47.8611 61.3483Z" stroke="#313553" stroke-width="0.243673" stroke-linecap="round" stroke-linejoin="round"/>
<path d="M66.0768 67.9673H54.2344C53.9016 67.9668 53.5825 67.8344 53.3472 67.599C53.112 67.3635 52.9797 67.0444 52.9795 66.7116C52.9805 66.3793 53.1131 66.0609 53.3483 65.8262C53.5834 65.5914 53.9021 65.4594 54.2344 65.459H66.0768C66.4095 65.459 66.7285 65.5911 66.9637 65.8263C67.1989 66.0615 67.331 66.3805 67.331 66.7131C67.331 67.0458 67.1989 67.3648 66.9637 67.5999C66.7285 67.8351 66.4095 67.9673 66.0768 67.9673Z" stroke="#313553" stroke-width="0.243673" stroke-linecap="round" stroke-linejoin="round"/>
<path d="M116.528 67.9673H73.001C72.6682 67.9667 72.3493 67.8342 72.1141 67.5988C71.8788 67.3634 71.7465 67.0444 71.7461 66.7116C71.7475 66.3794 71.8802 66.0613 72.1153 65.8266C72.3504 65.5919 72.6688 65.4597 73.001 65.459H116.528C116.861 65.459 117.179 65.5911 117.414 65.8263C117.65 66.0615 117.782 66.3805 117.782 66.7131C117.782 67.0458 117.65 67.3648 117.414 67.5999C117.179 67.8351 116.861 67.9673 116.528 67.9673Z" stroke="#313553" stroke-width="0.243673" stroke-linecap="round" stroke-linejoin="round"/>
<path d="M47.3936 67.3583C47.3936 67.4118 47.3936 67.4653 47.3883 67.5165C47.542 67.4299 47.6677 67.3011 47.7506 67.1455C47.8335 66.9898 47.8703 66.8137 47.8565 66.6378C47.8427 66.462 47.779 66.2937 47.6729 66.1529C47.5667 66.012 47.4225 65.9045 47.2572 65.8428H47.252C47.3186 66.2118 47.3619 66.5846 47.3815 66.9591V66.9892C47.3905 67.1097 47.3936 67.234 47.3936 67.3583Z" stroke="#313553" stroke-width="0.243673" stroke-linecap="round" stroke-linejoin="round"/>
<path d="M95.3237 73.3269H54.2344C53.9016 73.3267 53.5825 73.1945 53.3473 72.9591C53.112 72.7238 52.9797 72.4048 52.9795 72.072C52.9801 71.7396 53.1126 71.4209 53.3478 71.1861C53.5831 70.9512 53.902 70.8193 54.2344 70.8193H95.3237C95.6506 70.8274 95.9617 70.963 96.1907 71.1972C96.4189 71.4315 96.5469 71.7458 96.5469 72.0731C96.5469 72.4004 96.4189 72.7147 96.1907 72.949C95.9617 73.1832 95.6506 73.3189 95.3237 73.3269Z" stroke="#313553" stroke-width="0.243673" stroke-linecap="round" stroke-linejoin="round"/>
<path d="M116.528 73.3273H102.248C101.915 73.327 101.597 73.1948 101.361 72.9594C101.126 72.7241 100.993 72.4051 100.993 72.0724C100.994 71.7399 101.126 71.4213 101.361 71.1865C101.597 70.9516 101.916 70.8197 102.248 70.8197H116.528C116.695 70.8156 116.862 70.845 117.018 70.9062C117.173 70.9674 117.315 71.059 117.435 71.1759C117.555 71.2927 117.65 71.4323 117.714 71.5864C117.779 71.7406 117.813 71.9062 117.813 72.0735C117.813 72.2408 117.779 72.4063 117.714 72.5605C117.65 72.7146 117.555 72.8542 117.435 72.9711C117.315 73.0879 117.173 73.1796 117.018 73.2408C116.862 73.302 116.695 73.3313 116.528 73.3273Z" stroke="#313553" stroke-width="0.243673" stroke-linecap="round" stroke-linejoin="round"/>
<path d="M46.5511 71.2068C46.6264 71.1315 46.8629 71.1368 46.9277 71.1368C47.1752 71.1368 47.4126 71.2351 47.5876 71.4101C47.7627 71.5852 47.861 71.8225 47.861 72.0701C47.861 72.3176 47.7627 72.5549 47.5876 72.73C47.4126 72.905 47.1752 73.0033 46.9277 73.0033C46.7288 72.9987 46.5363 72.9313 46.3779 72.8109C46.2194 72.6906 46.1028 72.5234 46.0449 72.3329" stroke="#313553" stroke-width="0.243673" stroke-linecap="round" stroke-linejoin="round"/>
<path d="M63.6394 78.689H54.2344C53.9016 78.6882 53.5825 78.5564 53.3472 78.3206C53.112 78.0856 52.9797 77.7662 52.9795 77.4333C52.9805 77.1011 53.1131 76.7825 53.3483 76.5475C53.5834 76.3132 53.9021 76.1814 54.2344 76.1807H63.6394C63.972 76.1807 64.291 76.3125 64.5262 76.5482C64.7614 76.7833 64.8935 77.1019 64.8935 77.4348C64.8935 77.7677 64.7614 78.0864 64.5262 78.3214C64.291 78.5571 63.972 78.689 63.6394 78.689Z" stroke="#313553" stroke-width="0.243673" stroke-linecap="round" stroke-linejoin="round"/>
<path d="M116.528 78.689H70.5642C70.2313 78.6882 69.9122 78.5564 69.6768 78.3206C69.4414 78.0856 69.309 77.7662 69.3086 77.4333C69.3099 77.1011 69.4428 76.7825 69.6781 76.5482C69.9134 76.3132 70.2319 76.1814 70.5642 76.1807H116.528C116.861 76.1807 117.179 76.3125 117.414 76.5482C117.65 76.7833 117.782 77.1019 117.782 77.4348C117.782 77.7677 117.65 78.0864 117.414 78.3214C117.179 78.5571 116.861 78.689 116.528 78.689Z" stroke="#313553" stroke-width="0.243673" stroke-linecap="round" stroke-linejoin="round"/>
<path d="M85.5745 84.0505H54.2344C53.9016 84.0505 53.5825 83.9179 53.3473 83.6829C53.112 83.4472 52.9797 83.1285 52.9795 82.7956C52.9801 82.4634 53.1126 82.1448 53.3478 81.9098C53.5831 81.6748 53.902 81.543 54.2344 81.543H85.5745C85.9014 81.5513 86.2125 81.6868 86.4415 81.9211C86.6697 82.1554 86.7977 82.4695 86.7977 82.7971C86.7977 83.124 86.6697 83.4381 86.4415 83.6724C86.2125 83.9066 85.9014 84.0422 85.5745 84.0505Z" stroke="#313553" stroke-width="0.243673" stroke-linecap="round" stroke-linejoin="round"/>
<path d="M116.528 84.0505H92.4998C92.1669 84.0505 91.8475 83.9179 91.6125 83.6829C91.3767 83.4472 91.2449 83.1285 91.2441 82.7956C91.2449 82.4634 91.3782 82.1448 91.6132 81.9098C91.8482 81.6748 92.1676 81.543 92.4998 81.543H116.528C116.855 81.5513 117.166 81.6868 117.395 81.9211C117.623 82.1554 117.751 82.4695 117.751 82.7971C117.751 83.124 117.623 83.4381 117.395 83.6724C117.166 83.9066 116.855 84.0422 116.528 84.0505Z" stroke="#313553" stroke-width="0.243673" stroke-linecap="round" stroke-linejoin="round"/>
<path d="M47.8611 82.7953C47.8608 82.9799 47.8059 83.1599 47.7033 83.3128C47.6006 83.4657 47.4549 83.5855 47.2845 83.6555C47.1142 83.7263 46.9268 83.7444 46.746 83.7083C46.5653 83.6721 46.3992 83.5832 46.269 83.4529C46.1386 83.3226 46.0499 83.1561 46.014 82.9754C45.9781 82.7946 45.9965 82.6078 46.067 82.4368C46.1375 82.2666 46.2569 82.1212 46.4101 82.0188C46.5633 81.9163 46.7435 81.8613 46.9278 81.8613C47.0505 81.8613 47.172 81.8854 47.2854 81.9321C47.3987 81.9788 47.5017 82.0474 47.5885 82.1348C47.6752 82.2214 47.7439 82.3246 47.7907 82.4376C47.8374 82.5513 47.8614 82.6726 47.8611 82.7953Z" stroke="#313553" stroke-width="0.243673" stroke-linecap="round" stroke-linejoin="round"/>
<path d="M102.636 89.4118H54.2344C53.9016 89.4118 53.5825 89.2793 53.3473 89.0443C53.112 88.8085 52.9797 88.4899 52.9795 88.1569C52.9805 87.8248 53.1131 87.5061 53.3483 87.2711C53.5834 87.0369 53.9021 86.9051 54.2344 86.9043H102.636C102.963 86.9126 103.274 87.0482 103.503 87.2824C103.731 87.5167 103.859 87.8308 103.859 88.1577C103.859 88.4853 103.731 88.7994 103.503 89.0337C103.274 89.268 102.963 89.4035 102.636 89.4118Z" stroke="#313553" stroke-width="0.243673" stroke-linecap="round" stroke-linejoin="round"/>
<path d="M116.528 89.4122H109.56C109.227 89.4122 108.908 89.2796 108.672 89.0446C108.437 88.8088 108.305 88.4902 108.305 88.1573C108.305 87.8251 108.438 87.5065 108.674 87.2714C108.909 87.0372 109.227 86.9054 109.56 86.9046H116.528C116.695 86.9009 116.862 86.9302 117.017 86.9912C117.173 87.0523 117.315 87.1441 117.435 87.2609C117.554 87.3777 117.649 87.517 117.714 87.6714C117.779 87.8258 117.813 87.9908 117.813 88.1588C117.813 88.326 117.779 88.4909 117.714 88.6454C117.649 88.7998 117.554 88.9391 117.435 89.0559C117.315 89.1726 117.173 89.2645 117.017 89.3255C116.862 89.3865 116.695 89.4159 116.528 89.4122Z" stroke="#313553" stroke-width="0.243673" stroke-linecap="round" stroke-linejoin="round"/>
<path d="M47.8611 88.1559C47.8609 88.3405 47.8062 88.5205 47.7036 88.6734C47.6011 88.8271 47.4555 88.9461 47.2851 89.0169C47.1147 89.0877 46.9273 89.1058 46.7465 89.0696C46.5657 89.0334 46.3996 88.9446 46.2692 88.8143C46.1388 88.6839 46.0501 88.5182 46.0141 88.3375C45.978 88.1567 45.9964 87.9691 46.0669 87.7989C46.1374 87.6287 46.2568 87.4825 46.41 87.3801C46.5632 87.2776 46.7435 87.2227 46.9278 87.2227C47.0504 87.2227 47.1719 87.2468 47.2852 87.2935C47.3985 87.3402 47.5015 87.4087 47.5882 87.4953C47.6749 87.582 47.7436 87.6851 47.7904 87.7989C47.8373 87.9119 47.8613 88.0331 47.8611 88.1559Z" stroke="#313553" stroke-width="0.243673" stroke-linecap="round" stroke-linejoin="round"/>
<path d="M70.9511 94.7749H54.2344C53.9016 94.7741 53.5825 94.6423 53.3472 94.4066C53.112 94.1715 52.9797 93.8522 52.9795 93.5192C52.9805 93.1871 53.1131 92.8684 53.3483 92.6334C53.5834 92.3992 53.9021 92.2674 54.2344 92.2666H70.9511C71.2837 92.2666 71.6027 92.3984 71.8379 92.6342C72.0731 92.8692 72.2052 93.1878 72.2052 93.5207C72.2052 93.8537 72.0731 94.1723 71.8379 94.4073C71.6027 94.6431 71.2837 94.7749 70.9511 94.7749Z" stroke="#313553" stroke-width="0.243673" stroke-linecap="round" stroke-linejoin="round"/>
<path d="M116.527 94.7749H77.8748C77.5419 94.7741 77.2225 94.6423 76.9875 94.4066C76.7517 94.1715 76.6199 93.8522 76.6191 93.5192C76.6206 93.1871 76.7532 92.8684 76.989 92.6342C77.224 92.3992 77.5426 92.2674 77.8748 92.2666H116.527C116.86 92.2666 117.178 92.3984 117.413 92.6342C117.649 92.8692 117.781 93.1878 117.781 93.5207C117.781 93.8537 117.649 94.1723 117.413 94.4073C117.178 94.6431 116.86 94.7749 116.527 94.7749Z" stroke="#313553" stroke-width="0.243673" stroke-linecap="round" stroke-linejoin="round"/>
<path d="M47.8611 93.5192C47.8609 93.7037 47.8062 93.8838 47.7036 94.0367C47.6011 94.1903 47.4555 94.3093 47.2851 94.3802C47.1147 94.451 46.9273 94.469 46.7465 94.4329C46.5657 94.3967 46.3996 94.3078 46.2692 94.1775C46.1388 94.0472 46.0501 93.8815 46.0141 93.7007C45.978 93.52 45.9964 93.3324 46.0669 93.1622C46.1374 92.9919 46.2568 92.8458 46.41 92.7434C46.5632 92.6409 46.7435 92.5859 46.9278 92.5859C47.0504 92.5859 47.1718 92.61 47.2851 92.6567C47.3984 92.7034 47.5013 92.7727 47.588 92.8594C47.6746 92.946 47.7434 93.0484 47.7903 93.1622C47.8371 93.2752 47.8612 93.3964 47.8611 93.5192Z" stroke="#313553" stroke-width="0.243673" stroke-linecap="round" stroke-linejoin="round"/>
<path d="M30.1787 67.2988C30.1493 67.2988 30.1207 67.2988 30.0913 67.2988C30.0619 67.2988 30.0303 67.2988 30.0009 67.2988C29.096 67.2526 28.245 66.8547 27.6293 66.19C27.0137 65.5253 26.682 64.6462 26.7052 63.7405C26.7284 62.8347 27.1046 61.9739 27.7535 61.3415C28.4024 60.7091 29.2726 60.3553 30.1787 60.3555" stroke="#313553" stroke-width="0.365698" stroke-linecap="round" stroke-linejoin="round"/>
<path d="M25.2461 67.2939H30.1791C30.1497 67.2939 30.1211 67.2939 30.0917 67.2939C29.1807 67.3205 28.3167 67.704 27.6858 68.3618C27.055 69.0195 26.7079 69.8988 26.7194 70.8101C26.7308 71.7214 27.0999 72.5917 27.7471 73.2333C28.3943 73.875 29.2677 74.2366 30.1791 74.2403" stroke="#313553" stroke-width="0.365698" stroke-linecap="round" stroke-linejoin="round"/>
<path d="M36.417 67.2988C36.4464 67.2988 36.478 67.2988 36.5074 67.2988C36.5368 67.2988 36.5661 67.2988 36.5948 67.2988C37.4996 67.2526 38.3507 66.8547 38.9663 66.19C39.582 65.5253 39.9136 64.6462 39.8904 63.7405C39.8672 62.8347 39.4911 61.9739 38.8422 61.3415C38.1934 60.7091 37.3231 60.3553 36.417 60.3555" stroke="#313553" stroke-width="0.365698" stroke-linecap="round" stroke-linejoin="round"/>
<path d="M41.35 67.2939H36.417C36.4464 67.2939 36.478 67.2939 36.5074 67.2939C37.4186 67.3206 38.2828 67.7044 38.9135 68.3624C39.5444 69.0205 39.8912 69.9002 39.8794 70.8116C39.8675 71.7231 39.4979 72.5934 38.8502 73.2348C38.2025 73.8762 37.3286 74.2374 36.417 74.2403" stroke="#313553" stroke-width="0.365698" stroke-linecap="round" stroke-linejoin="round"/>
<path d="M132.501 51.7616L139.123 47.9404L132.501 44.1162" stroke="#313553" stroke-width="0.365698" stroke-linecap="round" stroke-linejoin="round"/>
<path d="M125.704 44.1162L119.082 47.9404L125.704 51.7616" stroke="#313553" stroke-width="0.365698" stroke-linecap="round" stroke-linejoin="round"/>
<path d="M130.988 42.3887L127.029 53.4364" stroke="#313553" stroke-width="0.243673" stroke-linecap="round" stroke-linejoin="round"/>
<path d="M125.126 105.513L126.199 102.257L128.743 94.5312L131.29 102.257L132.362 105.513" stroke="#313553" stroke-width="0.365698" stroke-linecap="round" stroke-linejoin="round"/>
<path d="M126.198 102.257H131.289" stroke="#313553" stroke-width="0.365698" stroke-linecap="round" stroke-linejoin="round"/>
<path d="M137.871 103.617C137.172 105.115 135.863 105.985 134.952 105.561C134.04 105.137 133.87 103.575 134.569 102.074C135.268 100.573 136.575 99.7049 137.489 100.129C137.769 100.301 137.995 100.551 138.139 100.848C138.284 101.144 138.34 101.475 138.303 101.803C138.291 102.432 138.144 103.05 137.871 103.617Z" stroke="#313553" stroke-width="0.243673" stroke-linecap="round" stroke-linejoin="round"/>
<path d="M138.302 101.782C138.302 101.79 138.302 101.797 138.302 101.804C138.436 103.123 137.629 106.596 139.733 105.182" stroke="#313553" stroke-width="0.243673" stroke-linecap="round" stroke-linejoin="round"/>
</svg>
