<svg  viewBox="0 0 151 151" fill="none" xmlns="http://www.w3.org/2000/svg">
<path d="M75.7564 141.111C115.185 141.111 147.149 139.542 147.149 137.607C147.149 135.671 115.185 134.103 75.7564 134.103C36.3276 134.103 4.36426 135.671 4.36426 137.607C4.36426 139.542 36.3276 141.111 75.7564 141.111Z" fill="#86F2AA"/>
<path d="M32.3959 137.356C32.6571 137.356 32.8689 137.144 32.8689 136.883C32.8689 136.622 32.6571 136.41 32.3959 136.41C32.1346 136.41 31.9229 136.622 31.9229 136.883C31.9229 137.144 32.1346 137.356 32.3959 137.356Z" fill="#1D1D1B"/>
<path d="M21.6527 136.914C21.7465 136.914 21.8381 136.942 21.9162 136.994C21.9942 137.046 22.055 137.119 22.091 137.206C22.127 137.293 22.1364 137.388 22.1183 137.48C22.1001 137.572 22.055 137.656 21.9888 137.723C21.9225 137.789 21.8381 137.834 21.7462 137.852C21.6543 137.871 21.559 137.861 21.4723 137.826C21.3857 137.79 21.3117 137.729 21.2596 137.651C21.2075 137.573 21.1797 137.482 21.1797 137.388C21.1796 137.326 21.1918 137.264 21.2155 137.207C21.2392 137.149 21.274 137.097 21.318 137.053C21.3619 137.009 21.4141 136.974 21.4715 136.95C21.529 136.926 21.5905 136.914 21.6527 136.914Z" fill="#1D1D1B"/>
<path d="M29.0433 139.409C29.3046 139.409 29.5164 139.197 29.5164 138.936C29.5164 138.675 29.3046 138.463 29.0433 138.463C28.7821 138.463 28.5703 138.675 28.5703 138.936C28.5703 139.197 28.7821 139.409 29.0433 139.409Z" fill="#1D1D1B"/>
<path d="M54.4379 137.356C54.6991 137.356 54.9109 137.144 54.9109 136.883C54.9109 136.622 54.6991 136.41 54.4379 136.41C54.1766 136.41 53.9648 136.622 53.9648 136.883C53.9648 137.144 54.1766 137.356 54.4379 137.356Z" fill="#1D1D1B"/>
<path d="M39.9457 137.356C40.2069 137.356 40.4187 137.144 40.4187 136.883C40.4187 136.622 40.2069 136.41 39.9457 136.41C39.6844 136.41 39.4727 136.622 39.4727 136.883C39.4727 137.144 39.6844 137.356 39.9457 137.356Z" fill="#1D1D1B"/>
<path d="M48.4476 139.335C48.7089 139.335 48.9207 139.123 48.9207 138.862C48.9207 138.6 48.7089 138.389 48.4476 138.389C48.1864 138.389 47.9746 138.6 47.9746 138.862C47.9746 139.123 48.1864 139.335 48.4476 139.335Z" fill="#1D1D1B"/>
<path d="M83.2768 136.828C83.538 136.828 83.7498 136.616 83.7498 136.355C83.7498 136.094 83.538 135.882 83.2768 135.882C83.0155 135.882 82.8037 136.094 82.8037 136.355C82.8037 136.616 83.0155 136.828 83.2768 136.828Z" fill="#1D1D1B"/>
<path d="M76.6531 137.992C76.7469 137.992 76.8385 138.02 76.9164 138.072C76.9944 138.124 77.0551 138.198 77.0909 138.285C77.1268 138.371 77.1361 138.466 77.1178 138.558C77.0994 138.65 77.0542 138.735 76.9879 138.801C76.9215 138.867 76.8371 138.912 76.7451 138.93C76.6531 138.949 76.5579 138.939 76.4713 138.903C76.3847 138.867 76.3108 138.806 76.2588 138.728C76.2069 138.65 76.1792 138.559 76.1793 138.465C76.1793 138.403 76.1916 138.341 76.2154 138.284C76.2392 138.226 76.2742 138.174 76.3182 138.13C76.3622 138.086 76.4144 138.051 76.4719 138.028C76.5294 138.004 76.591 137.992 76.6531 137.992ZM89.819 11.9371C88.5212 11.3774 89.1163 11.5348 67.0056 11.5348L67.1856 10.2249C67.1974 10.1314 67.1876 10.0363 67.1571 9.94711C67.1265 9.85789 67.0759 9.77685 67.0091 9.71019C66.9424 9.64353 66.8613 9.59302 66.772 9.56252C66.6828 9.53202 66.5877 9.52234 66.4942 9.53422H30.307C30.2002 9.54599 30.0969 9.57979 30.0038 9.63348C29.9107 9.68717 29.8297 9.75959 29.766 9.84616C29.7023 9.93273 29.6572 10.0316 29.6337 10.1364C29.6101 10.2413 29.6085 10.3499 29.6291 10.4554L29.8355 11.5348C22.4454 11.5265 15.0463 11.4595 7.65553 11.5348C7.1553 11.5158 6.65682 11.6045 6.19389 11.795C5.73096 11.9855 5.31441 12.2733 4.9725 12.639C4.63058 13.0046 4.37129 13.4395 4.21222 13.9141C4.05314 14.3888 3.998 14.8921 4.05052 15.3899C4.06032 15.4976 10.9201 68.0648 10.9525 68.2079C11.1719 69.6562 11.9075 70.9763 13.0236 71.9249C14.1397 72.8736 15.5611 73.3867 17.0258 73.3699C17.9297 73.3781 27.0553 73.3699 27.0553 73.3699C25.5849 82.4841 23.0352 91.3776 20.6655 100.289C18.4992 108.451 11.9219 133.344 10.78 137.626C10.7649 137.701 10.7788 137.778 10.8186 137.843C10.8585 137.908 10.9215 137.955 10.9949 137.976C11.0683 137.996 11.1467 137.988 11.2143 137.953C11.2819 137.917 11.3337 137.858 11.3592 137.786C23.8269 91.1403 26.1792 82.6483 27.6631 73.3699H29.9115L30.1654 74.7076C30.1953 74.8656 30.2794 75.0082 30.4031 75.1109C30.5269 75.2136 30.6825 75.27 30.8433 75.2703H66.0874C66.2549 75.2703 66.4167 75.2097 66.5431 75.0998C66.6695 74.9899 66.7519 74.8381 66.7751 74.6722L66.9506 73.3699H74.3866C76.6765 87.7003 83.3698 108.73 90.6227 135.784C90.6491 135.855 90.701 135.913 90.7682 135.947C90.8353 135.981 90.9129 135.989 90.9855 135.969C91.0582 135.949 91.1206 135.902 91.1606 135.838C91.2005 135.774 91.215 135.698 91.2012 135.624C84.8642 111.941 77.3717 88.1191 74.993 73.3661C84.9275 73.3661 84.3294 73.3917 84.9486 73.3073C86.3567 73.0958 87.6459 72.3966 88.5913 71.3319C89.5367 70.2671 90.0784 68.9043 90.1218 67.481C90.6966 57.6934 92.6791 18.6552 92.7537 17.2165C92.8734 14.9952 91.9936 12.8786 89.819 11.9371ZM92.1812 16.6923C92.1812 16.8113 89.5448 67.1594 89.5373 67.2814C89.3814 70.2884 87.2693 72.701 84.1449 72.768C82.1789 72.8095 84.0695 72.768 67.0373 72.768L67.1879 71.657C67.1996 71.5634 67.1897 71.4684 67.159 71.3792C67.1283 71.29 67.0776 71.209 67.0108 71.1424C66.944 71.0758 66.8629 71.0254 66.7736 70.995C66.6843 70.9646 66.5892 70.955 66.4957 70.967H30.307C30.2002 70.9788 30.0969 71.0126 30.0038 71.0663C29.9107 71.12 29.8297 71.1924 29.766 71.279C29.7023 71.3655 29.6572 71.4644 29.6337 71.5692C29.6101 71.6741 29.6085 71.7827 29.6291 71.8882L29.7963 72.7793C19.977 72.9006 17.3076 72.768 17.2134 72.768C15.8507 72.8213 14.5165 72.3687 13.4675 71.4974C12.4184 70.626 11.7287 69.3975 11.531 68.0482C10.4365 59.6443 5.72197 24.6292 4.66216 15.5037C4.59656 15.0698 4.62899 14.6268 4.75706 14.2071C4.88513 13.7874 5.10559 13.4018 5.40224 13.0784C5.69889 12.7551 6.0642 12.5024 6.47133 12.3388C6.87846 12.1751 7.31708 12.1048 7.75496 12.1329C8.67768 12.1254 29.9469 12.1329 29.9469 12.1329L30.1616 13.2711C30.1917 13.429 30.2758 13.5715 30.3995 13.6742C30.5232 13.7768 30.6788 13.8332 30.8395 13.8337H66.0829C66.2505 13.8337 66.4124 13.7732 66.5389 13.6633C66.6654 13.5534 66.748 13.4016 66.7714 13.2356L66.922 12.1329C66.922 12.1329 87.3657 12.1171 87.8659 12.1329C88.4506 12.1425 89.0275 12.2688 89.5627 12.5044C90.0979 12.74 90.5807 13.0801 90.9826 13.5048C91.3846 13.9295 91.6977 14.4303 91.9035 14.9776C92.1093 15.525 92.2037 16.1079 92.1812 16.6923Z" fill="#1D1D1B"/>
<path d="M51.4926 26.3438H65.9375C66.0174 26.3438 66.094 26.3121 66.1505 26.2556C66.207 26.1991 66.2388 26.1224 66.2388 26.0425C66.2388 25.9626 66.207 25.886 66.1505 25.8295C66.094 25.773 66.0174 25.7412 65.9375 25.7412H51.4926C51.4127 25.7412 51.3361 25.773 51.2795 25.8295C51.223 25.886 51.1913 25.9626 51.1913 26.0425C51.1913 26.1224 51.223 26.1991 51.2795 26.2556C51.3361 26.3121 51.4127 26.3438 51.4926 26.3438ZM52.0146 28.831C51.9347 28.831 51.858 28.8627 51.8015 28.9193C51.745 28.9758 51.7133 29.0524 51.7133 29.1323C51.7133 29.2122 51.745 29.2888 51.8015 29.3453C51.858 29.4019 51.9347 29.4336 52.0146 29.4336C56.7223 29.4215 61.4459 29.5036 66.1461 29.1873C66.5295 29.1602 66.5333 28.5613 66.1461 28.5847C61.4482 28.9011 56.7246 28.825 52.0146 28.831ZM66.2034 31.1826C61.5122 31.4455 56.6372 32.0586 51.9619 31.4643C51.5785 31.4169 51.5852 32.0157 51.9619 32.0669C56.6425 32.6575 61.5145 32.024 66.2034 31.7852C66.5868 31.7634 66.5906 31.163 66.2034 31.1826ZM51.4926 39.5526H65.9375C66.0174 39.5526 66.094 39.5209 66.1505 39.4644C66.207 39.4079 66.2388 39.3312 66.2388 39.2513C66.2388 39.1714 66.207 39.0948 66.1505 39.0383C66.094 38.9818 66.0174 38.95 65.9375 38.95H51.4926C51.4127 38.95 51.3361 38.9818 51.2795 39.0383C51.223 39.0948 51.1913 39.1714 51.1913 39.2513C51.1913 39.3312 51.223 39.4079 51.2795 39.4644C51.3361 39.5209 51.4127 39.5526 51.4926 39.5526ZM52.0146 42.6387C56.7223 42.6326 61.4459 42.7087 66.1461 42.3924C66.5295 42.3645 66.5333 41.7664 66.1461 41.7898C61.4459 42.1069 56.7223 42.0248 52.0146 42.0361C51.9347 42.0361 51.858 42.0678 51.8015 42.1243C51.745 42.1808 51.7133 42.2575 51.7133 42.3374C51.7133 42.4173 51.745 42.4939 51.8015 42.5504C51.858 42.6069 51.9347 42.6387 52.0146 42.6387ZM66.2034 44.3899C61.5107 44.6302 56.6372 45.266 51.9619 44.6717C51.5785 44.625 51.5852 45.223 51.9619 45.2743C56.6425 45.8648 61.5145 45.2313 66.2034 44.9925C66.5868 44.973 66.5906 44.3704 66.2034 44.3899ZM74.6073 62.7027C37.7836 63.7791 28.3056 64.158 17.1395 63.3324C16.7524 63.3046 16.7562 63.9034 17.1395 63.935C31.76 65.0137 43.3523 64.1926 74.6073 63.3053C74.9945 63.2895 74.9945 62.6914 74.6073 62.7027ZM74.6073 65.1033C37.7836 66.1797 28.3056 66.5586 17.1395 65.733C16.7524 65.7059 16.7562 66.304 17.1395 66.3356C31.76 67.4142 43.3523 66.5932 74.6073 65.7059C74.9945 65.6939 74.9945 65.092 74.6073 65.1033ZM51.4926 52.5588H65.9375C66.0174 52.5588 66.094 52.5271 66.1505 52.4706C66.207 52.4141 66.2388 52.3375 66.2388 52.2575C66.2388 52.1776 66.207 52.101 66.1505 52.0445C66.094 51.988 66.0174 51.9562 65.9375 51.9562H51.4926C51.4127 51.9562 51.3361 51.988 51.2795 52.0445C51.223 52.101 51.1913 52.1776 51.1913 52.2575C51.1913 52.3375 51.223 52.4141 51.2795 52.4706C51.3361 52.5271 51.4127 52.5588 51.4926 52.5588ZM52.0146 55.6486C56.7223 55.6426 61.4459 55.7187 66.1461 55.4023C66.5295 55.3745 66.5333 54.7764 66.1461 54.7997C61.4459 55.1168 56.7223 55.0347 52.0146 55.046C51.9347 55.046 51.858 55.0778 51.8015 55.1343C51.745 55.1908 51.7133 55.2674 51.7133 55.3473C51.7133 55.4272 51.745 55.5039 51.8015 55.5604C51.858 55.6169 51.9347 55.6486 52.0146 55.6486ZM51.9581 58.2797C56.6395 58.865 61.5107 58.2368 66.1996 57.9987C66.583 57.9792 66.5868 57.3766 66.1996 57.3961C61.5069 57.6387 56.6335 58.2722 51.9581 57.6779C51.5785 57.6312 51.5785 58.233 51.9581 58.2797Z" fill="#1D1D1B"/>
<path d="M68.9492 44.7184C69.0999 45.6886 69.2468 46.6542 69.3951 47.6244C72.1128 46.7677 74.8293 45.91 77.5444 45.0513C77.3607 44.3162 77.1806 43.5848 76.9968 42.8496C74.3148 43.4708 71.6323 44.0937 68.9492 44.7184ZM105.345 44.4646C104.991 44.3522 104.636 44.2452 104.278 44.1437C102.818 44.5105 101.413 45.0721 100.102 45.8136C101.543 47.2672 103.169 48.5253 104.938 49.5557C105.384 48.7064 105.939 47.9191 106.589 47.2139C105.896 46.4506 105.461 45.4888 105.345 44.4646ZM129.236 83.0252C131.656 82.3937 133.876 81.1585 135.689 79.4353C135.262 78.4854 134.832 77.5386 134.408 76.5888L126.357 82.3639C126.725 82.7348 127.191 82.9938 127.701 83.1109C128.211 83.2279 128.743 83.1982 129.236 83.0252Z" fill="#FF8684"/>
<path d="M125.743 82.0666C135.843 74.8355 134.223 75.9435 134.397 75.8652C121.419 49.6524 122.444 51.5438 121.568 50.3612C120.165 48.4769 118.379 46.9109 116.327 45.7665C116.333 45.8116 116.328 45.8574 116.314 45.9006C116.3 45.9438 116.276 45.9834 116.245 46.0165C114.641 47.672 112.808 49.089 110.801 50.2241C110.732 50.2638 110.65 50.2745 110.574 50.2539C110.497 50.2332 110.431 50.183 110.391 50.1142C109.932 49.208 109.361 48.3633 108.691 47.5998C108.655 47.6382 108.617 47.6749 108.577 47.7098C109.684 49.0159 109.586 51.5513 109.817 53.6024C110.102 56.125 110.325 58.686 110.853 61.1732C111.111 62.3973 111.779 63.8284 111.677 65.0954C111.463 66.1562 111.079 67.1756 110.54 68.1144C110.224 68.8262 108.456 73.0684 107.58 72.9517C106.77 72.8417 105.539 69.9831 105.218 69.4159C103.848 66.995 103.343 66.9596 103.974 62.5381C104.404 59.6493 105.003 56.7884 105.769 53.97C106.29 52.0229 106.563 49.727 107.228 47.764C107.154 47.7152 107.082 47.6631 107.013 47.6081C106.344 48.3682 105.776 49.2103 105.32 50.1142C105.279 50.1819 105.213 50.2311 105.137 50.2516C105.06 50.2721 104.978 50.2623 104.909 50.2241C102.946 49.1143 101.149 47.7333 99.5714 46.122C97.9285 47.1306 96.4719 48.4151 95.2659 49.9191C92.0473 53.9572 86.6925 54.3142 83.4212 51.8858C81.0965 50.2695 79.235 48.0735 78.0212 45.5156C77.979 45.5307 69.1924 48.3026 69.2188 48.3026C69.9849 52.0447 71.6427 57.6428 75.0188 60.8938C79.4373 65.1481 87.9971 66.0557 92.0684 65.1526C92.3531 68.265 92.8344 71.3894 93.2735 74.4551C93.5711 76.51 94.139 83.198 94.3838 84.8099C94.4592 84.7911 121.434 84.8062 121.358 84.8062C121.385 83.9927 121.847 69.4536 122.05 62.9938C122.062 62.6067 122.664 62.6067 122.653 62.9938C122.626 63.9052 122.317 73.6454 122.192 77.6067C123.044 79.3587 124.202 80.9439 125.613 82.2873C125.614 82.2424 125.626 82.1985 125.649 82.1598C125.672 82.1211 125.705 82.089 125.743 82.0666Z" fill="#FF8684"/>
<path d="M109.047 47.1308C109.729 47.8527 110.307 48.6662 110.764 49.5479C112.553 48.5071 114.196 47.2327 115.648 45.7583C115.543 45.5852 115.433 45.4145 115.32 45.2461C114.19 44.7118 113.004 44.3053 111.784 44.0342C111.249 44.1848 110.718 44.3425 110.19 44.5072C109.885 45.413 109.503 46.2908 109.047 47.1308Z" fill="#FF8684"/>
<path d="M100.297 32.1856C100.297 32.1856 97.435 24.9665 99.135 20.8455C99.252 20.5663 99.452 20.3298 99.708 20.1682C99.964 20.0066 100.264 19.9276 100.566 19.9421C100.868 19.9566 101.159 20.0638 101.398 20.2491C101.638 20.4345 101.814 20.689 101.904 20.9781L102.733 23.6491C102.733 23.6491 104.301 20.1646 105.345 20.6889C106.389 21.2131 106.217 23.3011 106.217 23.3011C106.217 23.3011 112.661 20.6889 114.753 23.4766C116.846 26.2643 114.057 32.5336 114.057 32.5336C114.057 32.5336 113.276 27.2194 108.047 26.8715C102.819 26.5235 100.297 32.1856 100.297 32.1856Z" fill="#C17E48"/>
<path d="M114.47 30.8445C113.82 29.4671 112.79 28.3042 111.501 27.4931C110.212 26.682 108.718 26.2565 107.195 26.2668C105.672 26.2771 104.184 26.7227 102.906 27.5512C101.628 28.3797 100.613 29.5563 99.9821 30.9424C99.7007 30.8223 99.3946 30.7713 99.0894 30.7937C98.7842 30.8161 98.4888 30.9113 98.228 31.0713C97.9671 31.2312 97.7483 31.4513 97.59 31.7132C97.4316 31.975 97.3383 32.271 97.3178 32.5763C97.2973 32.8816 97.3502 33.1874 97.4721 33.4681C97.594 33.7488 97.7813 33.9962 98.0184 34.1896C98.2555 34.3831 98.5355 34.5169 98.835 34.5799C99.1344 34.643 99.4446 34.6334 99.7396 34.552C100.107 35.9125 100.859 37.1381 101.905 38.0815C102.952 39.0249 104.249 39.6459 105.64 39.8698V44.5505H109.82V39.6235C110.998 39.2772 112.068 38.635 112.928 37.7582C113.788 36.8814 114.409 35.7992 114.732 34.6145C115.009 34.6403 115.287 34.6056 115.549 34.513C115.811 34.4203 116.049 34.2718 116.248 34.0778C116.446 33.8838 116.6 33.649 116.699 33.3895C116.798 33.13 116.839 32.8522 116.82 32.5752C116.801 32.2982 116.722 32.0288 116.588 31.7855C116.454 31.5422 116.269 31.3309 116.045 31.1663C115.822 31.0016 115.565 30.8876 115.293 30.832C115.021 30.7765 114.74 30.7807 114.47 30.8445Z" fill="#FFCEB6"/>
<path d="M111.899 36.2805C109.057 36.2805 109.29 34.3643 107.015 34.3643C104.726 34.3643 104.994 36.2805 102.13 36.2805C101.453 36.2817 100.783 36.1501 100.156 35.8933C102.862 41.4711 111.776 41.3792 114.304 35.6862C113.563 36.0799 112.737 36.2841 111.899 36.2805Z" fill="#C17E48"/>
<path d="M103.373 31.8365C103.477 31.8365 103.579 31.8674 103.666 31.9254C103.752 31.9833 103.82 32.0657 103.86 32.162C103.9 32.2583 103.91 32.3644 103.89 32.4666C103.87 32.5689 103.819 32.6629 103.746 32.7366C103.672 32.8104 103.578 32.8606 103.476 32.8809C103.373 32.9013 103.267 32.8908 103.171 32.8509C103.075 32.811 102.992 32.7434 102.934 32.6567C102.876 32.57 102.846 32.4681 102.846 32.3638C102.845 32.2944 102.858 32.2256 102.885 32.1614C102.911 32.0972 102.95 32.0389 102.999 31.9898C103.048 31.9408 103.106 31.9019 103.17 31.8756C103.235 31.8493 103.303 31.836 103.373 31.8365ZM111.213 31.8365C111.318 31.8365 111.42 31.8674 111.506 31.9254C111.593 31.9833 111.661 32.0657 111.7 32.162C111.74 32.2583 111.751 32.3644 111.73 32.4666C111.71 32.5689 111.66 32.6629 111.586 32.7366C111.512 32.8104 111.418 32.8606 111.316 32.8809C111.214 32.9013 111.108 32.8908 111.012 32.8509C110.915 32.811 110.833 32.7434 110.775 32.6567C110.717 32.57 110.686 32.4681 110.686 32.3638C110.686 32.2239 110.742 32.0898 110.84 31.9909C110.939 31.8921 111.073 31.8365 111.213 31.8365ZM105.022 29.631C104.355 29.4757 103.655 29.5411 103.029 29.8175C102.402 30.094 101.882 30.5664 101.546 31.1639C101.512 31.2325 101.505 31.3115 101.527 31.3849C101.549 31.4583 101.599 31.5205 101.665 31.5589C101.731 31.5973 101.81 31.609 101.884 31.5916C101.959 31.5741 102.024 31.5289 102.067 31.4652C102.334 30.9813 102.751 30.5972 103.255 30.3709C103.76 30.1446 104.324 30.0882 104.863 30.2103C105.238 30.2991 105.398 29.7207 105.022 29.631ZM109.723 30.2095C110.263 30.0871 110.827 30.1433 111.331 30.3696C111.836 30.596 112.253 30.9803 112.519 31.4644C112.562 31.5268 112.627 31.5708 112.701 31.5874C112.775 31.604 112.853 31.5921 112.919 31.5541C112.984 31.516 113.033 31.4547 113.055 31.3822C113.078 31.3097 113.072 31.2315 113.039 31.1631C112.704 30.5657 112.184 30.0932 111.557 29.8168C110.93 29.5404 110.23 29.4749 109.563 29.6303C109.192 29.7207 109.348 30.2991 109.723 30.2095ZM105.425 30.7059C105.435 31.8516 105.895 33.9011 107.4 33.819C108.655 33.7482 108.93 31.8403 108.988 30.8814C109.012 30.4942 108.414 30.498 108.386 30.8814C108.346 31.4953 108.191 33.1102 107.4 33.2164C106.305 33.3671 106.032 31.4411 106.028 30.7021C106.028 30.6626 106.02 30.6234 106.004 30.587C105.989 30.5505 105.967 30.5174 105.938 30.4896C105.91 30.4618 105.877 30.4398 105.84 30.4249C105.804 30.41 105.764 30.4025 105.725 30.4027C105.685 30.403 105.646 30.411 105.61 30.4264C105.573 30.4417 105.54 30.4641 105.512 30.4923C105.485 30.5204 105.463 30.5538 105.448 30.5905C105.433 30.6271 105.425 30.6663 105.425 30.7059ZM105.637 35.9146L109.019 35.9695C109.019 35.9695 108.878 37.3661 107.103 37.3186C105.327 37.2711 105.637 35.9146 105.637 35.9146Z" fill="#1D1D1B"/>
<path d="M121.634 85.1797H94.417C94.7755 93.5143 95.7435 107.698 96.5878 115.275C97.314 121.795 97.2334 130.987 101.229 131.53C104.809 132.018 105.247 124.341 105.988 120.898C107.504 113.813 108.818 105.263 109.797 98.0842C109.922 97.1532 110.403 95.722 110.227 94.7843C110.227 94.7843 116.832 130.603 123.233 130.603C129.634 130.603 121.634 85.1797 121.634 85.1797Z" fill="#6C458F"/>
<path d="M99.9776 132.62C100.854 132.748 101.748 132.692 102.601 132.455C102.783 132.398 102.975 132.38 103.164 132.401C103.353 132.423 103.536 132.484 103.701 132.58C103.865 132.676 104.008 132.805 104.12 132.959C104.231 133.114 104.31 133.29 104.349 133.476C104.6 134.668 104.776 136.151 104.252 136.604C103.395 137.357 96.6107 139.396 92.7782 138.767C92.5697 138.734 92.3805 138.625 92.2466 138.462C92.1127 138.299 92.0433 138.092 92.0514 137.881C92.0596 137.67 92.1448 137.469 92.2909 137.317C92.4371 137.164 92.634 137.071 92.8445 137.054C94.3231 136.945 97.5725 136.376 98.4757 133.538C98.5793 133.234 98.7862 132.975 99.0606 132.808C99.3349 132.64 99.6594 132.573 99.9776 132.62ZM125.88 132.068C125.029 132.318 124.136 132.387 123.257 132.272C123.069 132.24 122.876 132.248 122.692 132.295C122.508 132.343 122.335 132.428 122.186 132.546C122.036 132.664 121.913 132.811 121.824 132.98C121.734 133.148 121.681 133.333 121.668 133.523C121.587 134.739 121.621 136.229 122.2 136.611C123.154 137.233 130.154 138.313 133.861 137.155C134.067 137.092 134.242 136.954 134.352 136.769C134.462 136.584 134.499 136.365 134.456 136.154C134.413 135.952 134.299 135.772 134.135 135.647C133.97 135.523 133.766 135.462 133.56 135.476C132.082 135.573 128.782 135.464 127.491 132.777C127.348 132.489 127.108 132.261 126.814 132.131C126.52 132.002 126.189 131.979 125.88 132.068Z" fill="#1D1D1B"/>
<path d="M74.4394 41.5425C75.0028 40.8578 74.9757 39.6729 75.0028 38.8444C75.0053 37.8577 74.8629 36.8761 74.5803 35.9308C74.2656 34.4801 73.6964 33.0966 72.899 31.8445C72.6136 31.446 71.3172 29.4786 70.6973 30.155C70.3297 30.558 70.9127 31.7119 71.0295 32.142C71.1666 32.6505 71.3895 33.1664 71.4814 33.6666C71.2502 32.9826 69.7957 32.6188 69.2089 32.9435C68.6013 33.2687 68.1229 33.7917 67.8531 34.4258C66.6878 34.1208 66.8987 36.9906 67.0712 37.5503C67.3522 38.4542 68.1777 39.4191 69.2217 38.8444C68.9483 38.995 69.5381 40.9949 69.6985 41.2886C70.4842 42.9021 73.5122 42.6701 74.4394 41.5425ZM135.649 83.0046C134.23 82.3545 132.716 82.3161 131.759 83.8332C131.047 84.9593 131.067 86.6292 131.081 87.9157C131.094 88.7917 131.006 90.3359 131.473 91.1178C132.133 92.2213 132.527 90.6063 132.678 89.9962C132.794 89.5307 132.971 88.1387 133.597 88.1191C134.582 88.092 134.907 91.7166 135.044 92.4284C135.133 92.8931 135.227 95.2154 136.076 94.4968C136.925 93.7782 136.072 91.9787 136.385 91.1027C136.948 89.5209 137.773 92.6709 138.297 92.9798C139.705 93.8166 138.634 90.4617 138.716 89.7695C139.798 89.4877 139.876 92.0729 141.214 91.709C141.488 90.7863 140.838 89.6911 140.526 88.8189C140.12 87.7074 139.565 86.6563 138.875 85.6944C138.037 84.5467 136.929 83.623 135.649 83.0046Z" fill="#FFCEB6"/>
<path d="M43.3552 58.6391C45.5841 58.6391 47.3911 56.8322 47.3911 54.6032C47.3911 52.3743 45.5841 50.5674 43.3552 50.5674C41.1263 50.5674 39.3193 52.3743 39.3193 54.6032C39.3193 56.8322 41.1263 58.6391 43.3552 58.6391Z" fill="#86F2AA"/>
<path d="M28.9651 30.496C29.7394 29.2682 30.9793 28.3801 31.6128 27.0506C31.9122 26.3298 32.0316 25.547 31.9608 24.7696C31.8899 23.9923 31.6309 23.244 31.206 22.5892C30.5905 21.4658 29.7082 20.511 28.637 19.8086C27.5657 19.1063 26.3382 18.6781 25.0626 18.5616C19.1873 18.014 14.9142 21.6974 17.3705 27.2894C18.1177 28.9902 19.5722 30.3867 20.7412 31.8766C21.3695 32.9137 21.9034 34.005 22.3366 35.1374H27.2914C27.2907 35.2497 27.9588 32.0958 28.9651 30.496Z" fill="#FFD35C"/>
<path d="M28.0348 28.3647C27.9922 28.2142 27.9104 28.0777 27.7976 27.9693C27.6849 27.8609 27.5453 27.7844 27.3933 27.7478C27.2412 27.7111 27.0821 27.7156 26.9324 27.7607C26.7826 27.8059 26.6476 27.8901 26.5411 28.0047C26.3165 28.2392 26.1528 28.5253 26.0643 28.8378C25.9393 29.2016 25.8293 29.5692 25.7397 29.9443C25.446 29.9298 25.1609 29.8409 24.9111 29.6859C25.1132 29.4591 25.2648 29.1919 25.3557 28.9021C25.4466 28.6122 25.4748 28.3063 25.4384 28.0047C25.4407 27.8065 25.3731 27.6139 25.2474 27.4606C25.1217 27.3074 24.9459 27.2035 24.7511 27.167C24.5563 27.1306 24.3549 27.164 24.1823 27.2614C24.0098 27.3588 23.8771 27.514 23.8076 27.6996C23.7177 28.023 23.6943 28.3613 23.7387 28.694C23.7831 29.0267 23.8944 29.3469 24.066 29.6354C23.7503 29.851 23.3631 29.935 22.9866 29.8697C22.7372 28.9613 22.5346 27.9934 21.798 27.5746C21.6728 27.4968 21.526 27.4612 21.3792 27.4729C20.3999 27.5753 20.8097 29.762 22.4977 30.3585C22.866 31.7547 23.1646 33.1682 23.3926 34.594C23.413 34.6651 23.4587 34.7261 23.5212 34.7656C23.5837 34.8051 23.6585 34.8202 23.7315 34.8082C23.8044 34.7961 23.8703 34.7576 23.9167 34.7001C23.9631 34.6425 23.9867 34.5699 23.9831 34.4961C23.7632 33.1482 23.4827 31.8108 23.1425 30.4881C23.6124 30.5077 24.0751 30.3683 24.4561 30.0927C24.7933 30.3438 25.1947 30.4945 25.6139 30.5273C25.374 31.8358 25.3648 33.1761 25.5868 34.4878C25.6002 34.5666 25.6445 34.6369 25.7097 34.683C25.775 34.7292 25.8559 34.7476 25.9348 34.7341C26.0136 34.7206 26.0838 34.6764 26.13 34.6111C26.1762 34.5459 26.1945 34.4649 26.1811 34.3861C25.9663 33.11 25.9808 31.8058 26.224 30.5348C27.6386 30.4135 28.3436 29.2987 28.0348 28.3647ZM21.462 28.0868C21.9396 28.3256 22.1399 29.066 22.2748 29.5887C22.0193 29.4318 21.8097 29.2104 21.667 28.9467C21.5244 28.683 21.4536 28.3865 21.462 28.0868ZM24.5156 29.2166C24.3209 28.8276 24.2617 28.3845 24.3477 27.958C24.3739 27.9036 24.4135 27.8567 24.4627 27.8218C24.512 27.7868 24.5694 27.765 24.6294 27.7584C24.7635 27.7584 24.8207 27.961 24.8403 28.0943C24.8627 28.2935 24.8456 28.4952 24.7899 28.6878C24.7342 28.8804 24.641 29.0601 24.5156 29.2166ZM26.3611 29.9247C26.4364 29.6234 26.5253 29.3304 26.627 29.0374C26.737 28.7308 26.8929 28.3293 27.222 28.3293C27.6461 28.3293 27.7403 29.6852 26.3611 29.9247ZM22.5098 36.3574H26.9328C26.9927 36.3574 27.0502 36.3335 27.0926 36.2912C27.135 36.2488 27.1588 36.1913 27.1588 36.1314C27.1588 36.0715 27.135 36.014 27.0926 35.9716C27.0502 35.9292 26.9927 35.9054 26.9328 35.9054H22.5098C22.4498 35.9054 22.3924 35.9292 22.35 35.9716C22.3076 36.014 22.2838 36.0715 22.2838 36.1314C22.2838 36.1913 22.3076 36.2488 22.35 36.2912C22.3924 36.3335 22.4498 36.3574 22.5098 36.3574ZM22.5098 37.558H26.9328C26.9927 37.558 27.0502 37.5342 27.0926 37.4918C27.135 37.4495 27.1588 37.392 27.1588 37.3321C27.1588 37.2721 27.135 37.2146 27.0926 37.1723C27.0502 37.1299 26.9927 37.1061 26.9328 37.1061H22.5098C22.4498 37.1061 22.3924 37.1299 22.35 37.1723C22.3076 37.2146 22.2838 37.2721 22.2838 37.3321C22.2838 37.392 22.3076 37.4495 22.35 37.4918C22.3924 37.5342 22.4498 37.558 22.5098 37.558ZM78.7106 16.2888C78.7186 16.4378 78.6897 16.5864 78.6264 16.7215C78.563 16.8566 78.4672 16.9739 78.3475 17.063C78.2278 17.152 78.0879 17.2101 77.9403 17.2319C77.7927 17.2538 77.642 17.2387 77.5016 17.1881C77.3671 17.1304 77.2469 17.0439 77.1495 16.9346C77.0522 16.8253 76.98 16.6959 76.9382 16.5556C76.8964 16.4153 76.8859 16.2676 76.9075 16.1228C76.9291 15.978 76.9823 15.8398 77.0632 15.7178C77.1836 15.5707 77.3462 15.4641 77.5292 15.4123C77.7121 15.3606 77.9065 15.3662 78.0861 15.4285C78.2657 15.4907 78.4219 15.6066 78.5336 15.7604C78.6453 15.9143 78.707 16.0987 78.7106 16.2888C78.7256 16.6722 79.3275 16.6782 79.3131 16.2888C79.3142 15.9366 79.1923 15.5951 78.9684 15.3232C78.7446 15.0514 78.4328 14.8662 78.087 14.7997C77.7411 14.7332 77.3829 14.7895 77.0742 14.9589C76.7654 15.1283 76.5255 15.4002 76.3958 15.7276C76.3166 15.9434 76.2855 16.1739 76.3048 16.4029C76.3242 16.632 76.3935 16.854 76.5079 17.0534C76.6223 17.2528 76.7789 17.4247 76.9669 17.557C77.1548 17.6893 77.3695 17.7789 77.5958 17.8194C77.8128 17.8513 78.0342 17.8353 78.2443 17.7723C78.4544 17.7094 78.6482 17.6012 78.812 17.4552C78.9757 17.3093 79.1055 17.1292 79.1921 16.9276C79.2787 16.7261 79.32 16.508 79.3131 16.2888C79.3131 16.2089 79.2814 16.1322 79.2249 16.0757C79.1684 16.0192 79.0918 15.9875 79.0119 15.9875C78.9319 15.9875 78.8553 16.0192 78.7988 16.0757C78.7423 16.1322 78.7106 16.2089 78.7106 16.2888Z" fill="#1D1D1B"/>
<path d="M84.8137 16.2899C84.8252 16.4531 84.8023 16.6169 84.7463 16.7706C84.6904 16.9244 84.6028 17.0646 84.4891 17.1822C84.3754 17.2999 84.2383 17.3923 84.0866 17.4535C83.9349 17.5146 83.772 17.5432 83.6085 17.5373C83.4313 17.5351 83.2568 17.4945 83.0967 17.4185C82.9367 17.3424 82.795 17.2327 82.6814 17.0967C82.5678 16.9608 82.4849 16.8019 82.4385 16.6309C82.392 16.4599 82.3831 16.2809 82.4123 16.1062C82.4488 15.7972 82.6032 15.5143 82.8434 15.3166C83.0837 15.1189 83.391 15.0218 83.7012 15.0455C84.0114 15.0693 84.3004 15.212 84.5078 15.444C84.7151 15.6759 84.8247 15.979 84.8137 16.2899Z" fill="#FCAFB7"/>
<path d="M83.8448 14.7923C83.5037 14.7289 83.1512 14.7884 82.8498 14.9602C82.5483 15.132 82.3175 15.405 82.1982 15.7308C82.1189 15.9466 82.0879 16.1772 82.1073 16.4063C82.1267 16.6354 82.196 16.8574 82.3105 17.0568C82.425 17.2562 82.5817 17.4281 82.7698 17.5604C82.9578 17.6927 83.1725 17.7822 83.3989 17.8225C83.6111 17.8521 83.8272 17.8361 84.0327 17.7755C84.2382 17.7149 84.4285 17.6112 84.5907 17.4713C84.753 17.3313 84.8835 17.1584 84.9736 16.964C85.0637 16.7696 85.1113 16.5582 85.1133 16.3439C85.1225 15.9763 84.9996 15.6176 84.7668 15.3328C84.5341 15.0481 84.2069 14.8563 83.8448 14.7923ZM83.3047 17.1891C83.1702 17.1314 83.0499 17.0448 82.9526 16.9355C82.8552 16.8262 82.7831 16.6968 82.7413 16.5565C82.6996 16.4162 82.6892 16.2684 82.7109 16.1236C82.7327 15.9788 82.786 15.8406 82.8671 15.7187C82.9874 15.5715 83.1499 15.4647 83.3329 15.4129C83.5158 15.3611 83.7102 15.3667 83.8898 15.429C84.0695 15.4913 84.2256 15.6072 84.3372 15.7612C84.4488 15.9151 84.5104 16.0996 84.5137 16.2897C84.5218 16.4387 84.4928 16.5874 84.4295 16.7225C84.3661 16.8575 84.2703 16.9749 84.1506 17.0639C84.0309 17.153 83.891 17.211 83.7434 17.2329C83.5958 17.2547 83.4451 17.2396 83.3047 17.1891ZM27.7148 40.8476C26.772 40.3851 25.7309 40.1587 24.6811 40.1879C23.6314 40.2172 22.6045 40.5012 21.6889 41.0156C20.5639 41.7703 19.7093 42.8646 19.2495 44.1389C18.7898 45.4132 18.7489 46.801 19.1329 48.1002C19.5169 49.3994 20.3057 50.542 21.3843 51.3616C22.463 52.1812 23.7751 52.635 25.1297 52.6569C31.7228 52.5258 33.1502 43.4885 27.7148 40.8476ZM26.072 51.9722C24.6241 52.2381 23.1298 51.9199 21.9159 51.0871C20.702 50.2543 19.8672 48.9747 19.5941 47.5281C19.3436 46.4315 19.4238 45.2852 19.8247 44.2342C20.2256 43.1832 20.9291 42.2746 21.8463 41.6234C22.695 41.0869 23.6719 40.7876 24.6755 40.7568C25.6791 40.7259 26.6725 40.9647 27.5525 41.4481C28.4325 41.9316 29.1668 42.6421 29.679 43.5056C30.1912 44.3692 30.4626 45.3543 30.4649 46.3583C30.4476 49.067 28.856 51.4984 26.072 51.9722Z" fill="#1D1D1B"/>
<path d="M21.5787 45.8556C21.9651 45.8556 22.2784 45.5423 22.2784 45.1558C22.2784 44.7693 21.9651 44.4561 21.5787 44.4561C21.1922 44.4561 20.8789 44.7693 20.8789 45.1558C20.8789 45.5423 21.1922 45.8556 21.5787 45.8556Z" fill="#1D1D1B"/>
<path d="M28.2808 45.9542C28.6673 45.9542 28.9806 45.6409 28.9806 45.2544C28.9806 44.868 28.6673 44.5547 28.2808 44.5547C27.8943 44.5547 27.5811 44.868 27.5811 45.2544C27.5811 45.6409 27.8943 45.9542 28.2808 45.9542Z" fill="#1D1D1B"/>
<path d="M27.0833 47.557C27.0654 48.1025 26.8361 48.6197 26.4439 48.9993C26.0516 49.3789 25.5272 49.5911 24.9813 49.5911C24.4355 49.5911 23.9111 49.3789 23.5188 48.9993C23.1266 48.6197 22.8973 48.1025 22.8794 47.557C22.8598 47.1736 22.2573 47.1698 22.2768 47.557C22.2708 47.9156 22.3363 48.2719 22.4694 48.605C22.6025 48.9381 22.8006 49.2414 23.0522 49.4971C23.3037 49.7529 23.6036 49.956 23.9344 50.0947C24.2653 50.2333 24.6204 50.3047 24.9791 50.3047C25.3378 50.3047 25.6929 50.2333 26.0237 50.0947C26.3546 49.956 26.6545 49.7529 26.906 49.4971C27.1575 49.2414 27.3556 48.9381 27.4887 48.605C27.6219 48.2719 27.6873 47.9156 27.6813 47.557C27.7024 47.1698 27.1006 47.1698 27.0833 47.557Z" fill="#1D1D1B"/>
<path d="M39.3857 31.747L44.1877 21.7402C45.3304 23.1545 46.1954 24.7719 46.7374 26.5075C46.8978 26.9338 48.0397 30.7851 48.3877 30.746L39.3857 31.747Z" fill="#FFD35C"/>
<path d="M38.4121 40.7551L43.7902 35.377L49.1676 40.7551L43.7895 46.1332L38.4121 40.7551Z" fill="#FCAFB7"/>
<path d="M80.149 29.9045C80.2453 29.9893 80.367 30.0399 80.4951 30.0483C80.6231 30.0568 80.7504 30.0226 80.857 29.9512C82.9405 28.5449 86.431 27.0633 86.5154 23.9727C86.5415 23.2376 86.3283 22.5139 85.9079 21.9102C85.4876 21.3066 84.8826 20.8557 84.1841 20.6253C83.6583 20.4928 83.1071 20.4995 82.5848 20.6448C82.0624 20.7901 81.5869 21.0689 81.205 21.4539C81.1496 21.5187 81.0803 21.5705 81.0024 21.6053C80.9245 21.6402 80.8398 21.6573 80.7545 21.6554C80.6691 21.6536 80.5853 21.6327 80.509 21.5945C80.4326 21.5563 80.3658 21.5015 80.3132 21.4343C79.9256 20.8544 79.3563 20.4197 78.6948 20.1985C78.0333 19.9774 77.317 19.9822 76.6586 20.2123C76.0001 20.4425 75.4368 20.8848 75.0571 21.4699C74.6773 22.0549 74.5027 22.7496 74.5607 23.4447C74.581 24.1934 74.7672 24.9283 75.1059 25.5964C75.4445 26.2645 75.9272 26.8491 76.5191 27.3081C77.5563 28.1607 79.0952 28.9916 80.149 29.9045Z" fill="#FFD35C"/>
<path d="M104.892 50.2603C104.962 50.3 105.043 50.3107 105.12 50.2901C105.197 50.2694 105.263 50.2192 105.303 50.1504C105.759 49.2467 106.328 48.4044 106.996 47.6436C107.064 47.7007 107.136 47.7531 107.211 47.8003C106.547 49.7632 106.272 52.0591 105.752 54.0062C105.051 56.6245 103.391 63.6379 103.746 66.3277C103.903 67.5208 104.618 68.4157 105.201 69.4522C105.521 70.0193 106.754 72.8779 107.563 72.9871C108.443 73.1046 110.207 68.8616 110.523 68.1498C111.059 67.2102 111.444 66.1915 111.661 65.1316C111.759 63.8646 111.094 62.4335 110.833 61.2094C110.305 58.7237 110.079 56.1627 109.797 53.6386C109.561 51.5499 109.669 49.0552 108.557 47.7453C108.597 47.7108 108.635 47.6744 108.671 47.636C109.343 48.3979 109.915 49.2429 110.372 50.1504C110.413 50.218 110.478 50.2673 110.555 50.2877C110.631 50.3082 110.713 50.2984 110.782 50.2603C112.789 49.1264 114.622 47.7093 116.225 46.0527C116.271 46.0052 116.3 45.9441 116.309 45.8786C116.317 45.813 116.304 45.7465 116.272 45.6889C115.669 44.715 114.66 42.9863 113.316 43.0842C112.133 43.2216 110.974 43.5175 109.871 43.964C108.519 43.806 107.154 43.806 105.803 43.964C104.702 43.514 103.544 43.2179 102.362 43.0842C101.013 42.9863 100.012 44.7112 99.4059 45.6889C99.3734 45.7465 99.3604 45.813 99.3688 45.8786C99.3772 45.9441 99.4066 46.0052 99.4526 46.0527C101.055 47.7089 102.887 49.126 104.892 50.2603ZM115.634 45.7944C114.179 47.2658 112.537 48.5397 110.75 49.5832C110.29 48.704 109.713 47.8911 109.035 47.1668C109.492 46.3296 109.876 45.4543 110.181 44.5508C110.767 44.3629 111.356 44.1871 111.949 44.0235C113.899 43.4849 114.538 44.028 115.635 45.7959L115.634 45.7944ZM105.329 44.4958C105.441 45.521 105.878 46.4834 106.577 47.2413C105.927 47.9465 105.373 48.7338 104.927 49.5832C103.139 48.5429 101.497 47.2701 100.043 45.7981C101.654 43.2221 102.407 43.5708 105.331 44.4958H105.329ZM77.4933 42.4394C77.4835 42.4011 77.4661 42.3651 77.4421 42.3336C77.4181 42.3021 77.3881 42.2757 77.3538 42.256C77.3195 42.2363 77.2815 42.2236 77.2422 42.2188C77.203 42.2139 77.1631 42.217 77.125 42.2278C74.2552 42.8992 71.3866 43.5665 68.5192 44.2299C68.4435 44.2522 68.3792 44.3029 68.3398 44.3713C68.3004 44.4398 68.2889 44.5207 68.3076 44.5975C68.4879 45.771 68.6691 46.9456 68.8514 48.1211C68.8726 48.1976 68.923 48.2626 68.9919 48.3021C69.0607 48.3416 69.1423 48.3524 69.219 48.332C72.136 47.4091 75.0518 46.4876 77.9664 45.5676C78.0418 45.5448 78.1056 45.4941 78.1448 45.4257C78.184 45.3574 78.1957 45.2767 78.1773 45.2001C77.9506 44.2811 77.7156 43.3629 77.4933 42.4394ZM76.9849 42.8771C77.1687 43.6122 77.3487 44.3436 77.5318 45.0788C74.8141 45.9355 72.0979 46.7932 69.3832 47.6519C69.2326 46.6817 69.0857 45.716 68.9373 44.7466C71.6198 44.1285 74.3024 43.5053 76.9849 42.8771ZM136.294 79.3904C134.661 75.8283 134.797 75.8961 134.589 75.863C134.413 75.8005 134.958 75.4864 125.728 82.0961C125.689 82.1202 125.656 82.1527 125.632 82.191C125.607 82.2294 125.591 82.2727 125.585 82.3179C125.579 82.363 125.583 82.409 125.597 82.4524C125.611 82.4959 125.634 82.5357 125.665 82.5691C125.96 82.9437 126.333 83.2499 126.757 83.4667C127.182 83.6834 127.648 83.8056 128.125 83.8247C130.879 83.6741 134.252 81.727 136.243 79.7572C136.291 79.7105 136.322 79.6491 136.332 79.5826C136.341 79.5162 136.328 79.4485 136.294 79.3904ZM129.224 83.0579C128.731 83.2307 128.198 83.2603 127.688 83.1434C127.178 83.0265 126.712 82.7679 126.343 82.3973L134.394 76.6215C134.82 77.5721 135.25 78.5182 135.674 79.4688C133.862 81.1915 131.642 82.4259 129.222 83.0564L129.224 83.0579ZM122.029 63.0315C121.829 69.4913 121.364 84.0341 121.336 84.8439H94.4096C94.3297 84.8439 94.2531 84.8756 94.1966 84.9321C94.1401 84.9886 94.1083 85.0653 94.1083 85.1452C94.1083 85.2251 94.1401 85.3017 94.1966 85.3582C94.2531 85.4147 94.3297 85.4465 94.4096 85.4465H121.626C121.706 85.4447 121.781 85.4124 121.838 85.3563C121.894 85.3002 121.926 85.2245 121.928 85.1452C122.131 78.6846 122.6 63.943 122.628 63.0315C122.643 62.6444 122.041 62.6444 122.029 63.0315ZM72.7811 34.1802C72.4362 34.4593 72.2041 34.854 72.128 35.2912C72.058 34.9003 71.9638 34.5379 71.8975 34.2705C71.8071 33.8939 71.2286 34.0551 71.3183 34.431C71.4245 34.8761 71.9051 37.2029 71.0607 37.1796C70.0905 36.2101 69.9263 34.5598 70.0061 33.2499C70.0295 32.8627 69.4276 32.8665 69.4035 33.2499C69.2446 34.6509 69.5702 36.064 70.3263 37.2541C70.3136 37.2852 70.3069 37.3185 70.3067 37.352C70.275 38.0202 69.9157 38.5407 69.2077 38.4503C68.8243 38.4036 68.8311 39.0062 69.2077 39.0529C69.4023 39.0769 69.5998 39.0619 69.7886 39.0088C69.9774 38.9557 70.1537 38.8656 70.3073 38.7437C70.4609 38.6218 70.5887 38.4705 70.6833 38.2987C70.7778 38.1269 70.8372 37.938 70.8581 37.743C71.3853 37.743 71.4644 37.7272 71.6678 37.5863C72.0519 37.3234 71.7431 37.0312 71.8124 39.4476C71.8237 39.8347 72.4263 39.8347 72.415 39.4476C72.3419 38.1572 72.4445 36.8628 72.7201 35.6C72.8105 35.2362 73.0643 34.1568 73.6744 34.9628C73.7727 35.2295 73.8257 35.5109 73.8311 35.7951C74.0066 36.8707 74.1166 37.9577 74.2175 39.0446C74.2529 39.428 74.8555 39.428 74.8201 39.0446C74.7403 38.329 74.7124 32.9072 72.7811 34.1802ZM111.701 137.443C111.795 137.443 111.886 137.47 111.965 137.522C112.043 137.574 112.103 137.648 112.139 137.735C112.175 137.821 112.185 137.917 112.166 138.009C112.148 138.101 112.103 138.185 112.037 138.251C111.97 138.318 111.886 138.363 111.794 138.381C111.702 138.399 111.607 138.39 111.52 138.354C111.434 138.318 111.36 138.257 111.308 138.179C111.256 138.101 111.228 138.009 111.228 137.916C111.228 137.79 111.278 137.67 111.367 137.581C111.455 137.493 111.576 137.443 111.701 137.443Z" fill="#1D1D1B"/>
<path d="M112.934 55.0963C112.897 55.1003 112.861 55.113 112.83 55.1334C112.799 55.1539 112.773 55.1814 112.754 55.2138C112.443 55.3644 112.544 55.5151 112.946 61.1855C112.947 61.2506 112.969 61.3138 113.008 61.3658C113.047 61.4178 113.102 61.456 113.164 61.4747C116.208 62.1315 116.008 62.2174 116.594 62.2212C116.952 62.2212 116.927 62.1556 119.269 60.9934C119.314 60.9676 119.352 60.9302 119.379 60.8849C119.405 60.8397 119.419 60.7882 119.419 60.7358C119.435 59.4763 119.455 58.2207 119.471 56.962C119.551 56.5673 119.519 56.1578 119.377 55.7806C119.235 55.4035 118.99 55.0741 118.669 54.8304C117.973 54.5215 116.851 54.737 116.108 54.7678C115.044 54.8083 113.984 54.918 112.934 55.0963ZM116.68 61.6351C116.441 61.6103 117.447 61.8054 113.528 60.9467L113.302 57.701C114.26 58.3096 115.779 57.4675 117.671 57.6113C118.067 57.679 118.471 57.6803 118.867 57.6151C118.86 58.1544 118.852 58.6945 118.848 59.23C118.776 59.6683 118.763 60.1141 118.808 60.5557C118.625 60.638 118.446 60.7305 118.273 60.8329C117.721 61.0577 117.189 61.326 116.68 61.6351ZM118.619 55.5618C118.869 55.8246 119.026 56.8136 118.659 57.0358C118.393 57.2001 117.779 57.005 117.486 56.9891C114.911 56.8679 113.033 58.3744 113.179 55.6627C114.379 55.4692 115.592 55.3635 116.808 55.3463C117.263 55.3388 118.256 55.1791 118.619 55.5618Z" fill="#1D1D1B"/>
</svg>
