<svg  viewBox="0 0 152 151" fill="none" xmlns="http://www.w3.org/2000/svg">
<path d="M36.633 99.0996H22.75V105.369H36.633V99.0996Z" fill="#313553"/>
<path d="M36.633 108.15H22.75V114.42H36.633V108.15Z" fill="#313553"/>
<path d="M36.633 117.199H22.75V134.516H36.633V117.199Z" fill="#313553"/>
<path d="M123.662 29.8945C124.464 29.8945 125.246 30.1321 125.913 30.5772C126.579 31.0224 127.098 31.655 127.405 32.3952C127.712 33.1354 127.792 33.95 127.636 34.7358C127.479 35.5215 127.093 36.2434 126.527 36.8099C125.96 37.3764 125.238 37.7622 124.452 37.9186C123.667 38.0749 122.853 37.9947 122.112 37.688C121.372 37.3814 120.739 36.8622 120.294 36.1961C119.849 35.5298 119.611 34.7467 119.611 33.9455C119.611 32.8712 120.038 31.8411 120.798 31.0815C121.558 30.3218 122.588 29.8949 123.662 29.8945Z" fill="#313553"/>
<path d="M123.662 48.8965C124.464 48.8962 125.247 49.1336 125.914 49.5786C126.58 50.0236 127.1 50.6564 127.407 51.3967C127.714 52.1371 127.795 52.9519 127.639 53.738C127.483 54.5242 127.097 55.2464 126.531 55.8133C125.963 56.3803 125.242 56.7666 124.455 56.9232C123.67 57.0798 122.855 56.9999 122.114 56.6934C121.374 56.387 120.74 55.8679 120.295 55.2016C119.849 54.5353 119.611 53.752 119.611 52.9504C119.611 51.8757 120.038 50.8449 120.798 50.0847C121.557 49.3245 122.587 48.8971 123.662 48.8965Z" fill="#313553"/>
<path d="M18.0764 46.2056C22.3309 46.2056 25.7798 42.7568 25.7798 38.5022C25.7798 34.2478 22.3309 30.7988 18.0764 30.7988C13.822 30.7988 10.373 34.2478 10.373 38.5022C10.373 42.7568 13.822 46.2056 18.0764 46.2056Z" fill="#313553"/>
<path d="M88.8455 23.9966C89.6115 23.9966 90.2329 23.3754 90.2329 22.6091C90.2329 21.8428 89.6115 21.2217 88.8455 21.2217C88.0794 21.2217 87.458 21.8428 87.458 22.6091C87.458 23.3754 88.0794 23.9966 88.8455 23.9966Z" fill="#313553"/>
<path d="M35.6199 31.2808C36.3862 31.2808 37.0074 30.6596 37.0074 29.8933C37.0074 29.127 36.3862 28.5059 35.6199 28.5059C34.8536 28.5059 34.2324 29.127 34.2324 29.8933C34.2324 30.6596 34.8536 31.2808 35.6199 31.2808Z" fill="#313553"/>
<path d="M24.871 83.1904C25.4149 83.1904 25.9467 83.3524 26.3988 83.6544C26.851 83.9565 27.2034 84.3866 27.4113 84.889C27.6193 85.3914 27.6736 85.9443 27.5673 86.4783C27.461 87.0116 27.1988 87.5012 26.814 87.8861C26.4293 88.2703 25.9391 88.5324 25.4055 88.6379C24.872 88.7441 24.3191 88.6891 23.8166 88.4804C23.3142 88.2726 22.8848 87.9193 22.5828 87.4673C22.2809 87.0146 22.1199 86.4829 22.1201 85.939C22.12 85.5782 22.1911 85.2204 22.3294 84.8867C22.4677 84.553 22.6703 84.2495 22.9258 83.9941C23.1813 83.7395 23.4845 83.5369 23.8184 83.3991C24.1521 83.2605 24.5098 83.1897 24.871 83.1904Z" fill="#FFE8BB"/>
<path d="M118.387 19.3064C119.906 19.3064 121.137 18.0748 121.137 16.5555C121.137 15.0363 119.906 13.8047 118.387 13.8047C116.867 13.8047 115.636 15.0363 115.636 16.5555C115.636 18.0748 116.867 19.3064 118.387 19.3064Z" fill="#FFE8BB"/>
<path d="M65.896 4.75391C66.4401 4.75346 66.972 4.91433 67.4247 5.21619C67.8772 5.51805 68.2302 5.94734 68.4388 6.44978C68.6475 6.95221 68.7025 7.50523 68.5968 8.03894C68.4912 8.57261 68.2297 9.06297 67.8453 9.44803C67.461 9.83309 66.9711 10.0955 66.4376 10.2022C65.9042 10.3088 65.3511 10.2549 64.8482 10.0472C64.3454 9.83956 63.9155 9.4875 63.6127 9.03548C63.31 8.58346 63.1481 8.05175 63.1475 7.50776C63.1468 7.14636 63.2174 6.78838 63.3552 6.4543C63.493 6.12022 63.6954 5.81659 63.9506 5.56081C64.2059 5.30502 64.5092 5.10209 64.843 4.96363C65.1768 4.82517 65.5346 4.7539 65.896 4.75391Z" fill="#FFE8BB"/>
<path d="M12.8016 19.3064C14.3209 19.3064 15.5525 18.0748 15.5525 16.5555C15.5525 15.0363 14.3209 13.8047 12.8016 13.8047C11.2824 13.8047 10.0508 15.0363 10.0508 16.5555C10.0508 18.0748 11.2824 19.3064 12.8016 19.3064Z" fill="#FFE8BB"/>
<path d="M110.152 89.0361L106.741 89.5423C105.99 89.5438 105.267 89.2621 104.714 88.7536C104.161 88.2459 103.82 87.5484 103.758 86.7997C103.758 86.7884 103.758 86.7741 103.758 86.7651C103.629 86.0374 103.768 85.2872 104.147 84.6537C104.527 84.0195 105.123 83.5434 105.825 83.3137L109.215 82.8105C109.009 82.8746 107.177 83.4885 107.619 86.4261C107.675 87.0867 107.958 87.7074 108.42 88.1834C108.881 88.6587 109.494 88.96 110.152 89.0361Z" fill="#55DEFF"/>
<path d="M133.802 26.9539V68.5328C133.802 68.7888 133.699 69.0342 133.518 69.2152C133.338 69.3962 133.092 69.498 132.836 69.4985H114.489C114.233 69.498 113.988 69.3962 113.808 69.2151C113.626 69.0341 113.524 68.7887 113.524 68.5328V26.9539C113.525 26.6981 113.627 26.4528 113.808 26.2718C113.988 26.0908 114.233 25.9889 114.489 25.9883H132.836C133.092 25.9888 133.337 26.0908 133.518 26.2717C133.699 26.4527 133.801 26.698 133.802 26.9539ZM127.715 33.947C127.715 33.1454 127.477 32.3618 127.032 31.6952C126.588 31.0287 125.955 30.509 125.215 30.2021C124.474 29.895 123.659 29.8145 122.873 29.9707C122.086 30.1268 121.365 30.5125 120.798 31.0792C120.231 31.6458 119.845 32.3678 119.688 33.1539C119.532 33.9399 119.611 34.7548 119.918 35.4954C120.224 36.236 120.744 36.8691 121.41 37.3145C122.077 37.7599 122.86 37.9978 123.662 37.998C124.736 37.9981 125.767 37.5715 126.527 36.8118C127.287 36.0521 127.715 35.0216 127.715 33.947ZM127.715 52.9535C127.715 52.152 127.477 51.3683 127.032 50.7017C126.588 50.0352 125.955 49.5155 125.215 49.2086C124.474 48.9016 123.659 48.821 122.873 48.9772C122.086 49.1333 121.365 49.5191 120.798 50.0857C120.231 50.6523 119.845 51.3743 119.688 52.1604C119.532 52.9465 119.611 53.7613 119.918 54.5019C120.224 55.2425 120.744 55.8756 121.41 56.321C122.077 56.7665 122.86 57.0043 123.662 57.0045C124.736 57.0045 125.768 56.5774 126.528 55.8173C127.288 55.0572 127.715 54.0262 127.715 52.9513V52.9535Z" fill="#55DEFF"/>
<path d="M40.2821 96.3397V137.915C40.2819 138.171 40.1802 138.416 39.9994 138.597C39.8184 138.778 39.5731 138.88 39.3172 138.88H20.9705C20.7145 138.88 20.4692 138.778 20.2882 138.597C20.1072 138.416 20.0053 138.171 20.0049 137.915V96.3397C20.0049 96.0836 20.1066 95.838 20.2877 95.6565C20.4688 95.4757 20.7144 95.374 20.9705 95.374H39.3172C39.444 95.374 39.5696 95.3989 39.6866 95.4478C39.8037 95.496 39.9102 95.5669 39.9997 95.6572C40.0894 95.7469 40.1605 95.8531 40.2089 95.9698C40.2573 96.0873 40.2822 96.2131 40.2821 96.3397ZM36.6327 134.515V117.198H22.7504V134.515H36.6327ZM36.6327 114.419V108.149H22.7504V114.419H36.6327ZM36.6327 105.369V99.1011H22.7504V105.37L36.6327 105.369Z" fill="#55DEFF"/>
<path d="M81.3104 17.9022V59.4811C81.3104 59.7375 81.2094 59.9836 81.0279 60.1652C80.8471 60.3468 80.6016 60.4492 80.3447 60.4497H61.9981C61.7418 60.449 61.4963 60.3465 61.3154 60.1649C61.1345 59.9833 61.033 59.7374 61.0332 59.4811V17.9022C61.0334 17.6463 61.1351 17.4009 61.316 17.2199C61.4969 17.0388 61.7422 16.937 61.9981 16.9365H80.3447C80.6008 16.9367 80.8464 17.0386 81.0271 17.2196C81.2087 17.4007 81.3104 17.6462 81.3104 17.9022Z" fill="#55DEFF"/>
<path d="M28.2162 26.9539V68.5328C28.2162 68.6599 28.1912 68.7858 28.1425 68.9033C28.0938 69.0207 28.0224 69.1274 27.9324 69.2172C27.8425 69.307 27.7357 69.3783 27.6182 69.4268C27.5007 69.4753 27.3747 69.5001 27.2476 69.5H8.9024C8.77563 69.5 8.65007 69.475 8.53294 69.4264C8.41586 69.3779 8.30945 69.3068 8.21985 69.2171C8.13023 69.1274 8.05918 69.0209 8.01073 68.9038C7.96228 68.7866 7.9374 68.6611 7.9375 68.5343V26.9554C7.9372 26.8285 7.96194 26.7028 8.0103 26.5855C8.05865 26.4682 8.12968 26.3615 8.21931 26.2717C8.30894 26.1818 8.41541 26.1105 8.53264 26.0619C8.64984 26.0133 8.77548 25.9883 8.9024 25.9883H27.2476C27.5041 25.9881 27.7501 26.0896 27.9317 26.2707C28.1133 26.4518 28.2156 26.6975 28.2162 26.9539ZM25.7795 38.5019C25.7797 36.9782 25.328 35.4888 24.4816 34.2219C23.6353 32.9549 22.4322 31.9674 21.0246 31.3843C19.617 30.8011 18.0681 30.6484 16.5737 30.9456C15.0794 31.2427 13.7066 31.9764 12.6293 33.0537C11.5519 34.131 10.8181 35.5036 10.5208 36.998C10.2235 38.4923 10.376 40.0412 10.9591 41.4488C11.5421 42.8565 12.5294 44.0597 13.7963 44.9061C15.0631 45.7526 16.5525 46.2045 18.0761 46.2045C20.1191 46.2045 22.0783 45.393 23.523 43.9485C24.9676 42.504 25.7793 40.5448 25.7795 38.5019Z" fill="#55DEFF"/>
<path d="M106.944 27.8574C107.219 27.857 107.488 27.9381 107.717 28.0906C107.945 28.243 108.124 28.4599 108.229 28.7138C108.335 28.9677 108.363 29.2472 108.309 29.5168C108.256 29.7865 108.123 30.0341 107.929 30.2286C107.734 30.4229 107.487 30.5552 107.217 30.6088C106.947 30.6623 106.668 30.6346 106.414 30.5292C106.16 30.4238 105.943 30.2454 105.79 30.0167C105.638 29.7879 105.557 29.519 105.558 29.2441C105.558 28.8764 105.704 28.5238 105.964 28.2638C106.224 28.0038 106.577 27.8576 106.944 27.8574Z" fill="#313553"/>
<path d="M106.944 42.7007C107.71 42.7007 108.332 42.0795 108.332 41.3133C108.332 40.547 107.71 39.9258 106.944 39.9258C106.178 39.9258 105.557 40.547 105.557 41.3133C105.557 42.0795 106.178 42.7007 106.944 42.7007Z" fill="#313553"/>
<path d="M106.944 48.7359C107.71 48.7359 108.332 48.1147 108.332 47.3483C108.332 46.5821 107.71 45.9609 106.944 45.9609C106.178 45.9609 105.557 46.5821 105.557 47.3483C105.557 48.1147 106.178 48.7359 106.944 48.7359Z" fill="#313553"/>
<path d="M106.944 51.9922C107.219 51.9917 107.488 52.0729 107.716 52.2252C107.945 52.3775 108.124 52.5942 108.229 52.8479C108.335 53.1016 108.363 53.3809 108.309 53.6505C108.256 53.92 108.124 54.1678 107.93 54.3623C107.736 54.5567 107.488 54.6893 107.219 54.7432C106.95 54.7971 106.67 54.7698 106.416 54.6648C106.162 54.5599 105.945 54.382 105.792 54.1536C105.64 53.9253 105.558 53.6567 105.558 53.3819C105.558 53.1996 105.593 53.019 105.662 52.8504C105.732 52.6819 105.834 52.5287 105.963 52.3997C106.092 52.2706 106.245 52.1681 106.413 52.0982C106.581 52.0283 106.762 51.9923 106.944 51.9922Z" fill="#313553"/>
<path d="M47.6863 110.61C47.961 110.61 48.2296 110.691 48.4582 110.844C48.6868 110.996 48.865 111.213 48.9705 111.466C49.0759 111.72 49.1037 111.999 49.0504 112.269C48.9971 112.539 48.865 112.786 48.671 112.98C48.477 113.175 48.2296 113.308 47.9603 113.361C47.6909 113.415 47.4116 113.388 47.1577 113.283C46.9038 113.178 46.6866 113 46.5338 112.772C46.3809 112.544 46.2991 112.276 46.2988 112.001C46.2986 111.632 46.4447 111.279 46.7048 111.019C46.965 110.758 47.318 110.611 47.6863 110.61Z" fill="#313553"/>
<path d="M47.6863 122.679C47.9608 122.679 48.229 122.76 48.4572 122.913C48.6854 123.065 48.8632 123.282 48.9682 123.535C49.0732 123.789 49.1007 124.068 49.047 124.337C48.9935 124.606 48.8612 124.853 48.6671 125.048C48.473 125.241 48.2257 125.374 47.9565 125.427C47.6874 125.481 47.4084 125.453 47.1548 125.348C46.9013 125.243 46.6846 125.065 46.5323 124.837C46.38 124.609 46.2987 124.34 46.2988 124.065C46.2994 123.698 46.4458 123.345 46.7059 123.085C46.966 122.826 47.3186 122.679 47.6863 122.679Z" fill="#313553"/>
<path d="M79.0566 85.9037C80.1631 86.0189 81.2809 85.9398 82.3595 85.6687C84.7586 85.0314 86.1167 82.4727 86.1167 82.4727C86.9573 83.6462 87.9403 84.7105 89.0423 85.6423L78.335 87.1254C78.6024 86.7511 78.8426 86.3586 79.0536 85.9504L79.0566 85.9037Z" fill="#313553"/>
<path d="M74.6449 77.4732C77.3844 73.6438 84.3896 67.706 89.0747 67.2292C90.3394 67.0989 96.3811 69.7451 101.099 71.8564C101.099 71.8564 112.096 71.4632 113.609 73.1708C119.885 80.2339 125.383 99.5545 126.457 101.7C127.53 103.846 142.997 112.483 148.124 115.135V146.384L117.91 128.105C115.993 128.34 114.054 128.34 112.137 128.105C95.9081 124.953 74.1598 108.529 69.9484 106.577C66.8549 105.146 66.119 102.152 65.7303 100.142C65.6469 99.5741 65.5185 99.0144 65.3461 98.4668C65.0808 97.929 64.728 97.4386 64.3021 97.0161C63.793 96.4572 63.1828 95.8787 62.639 95.3409C62.2095 94.9319 61.8119 94.4904 61.4496 94.0204C61.0237 93.4269 60.7822 92.7218 60.7554 91.992C60.7286 91.2621 60.9177 90.5405 61.299 89.9175C61.5858 89.3978 61.9463 88.9217 62.3693 88.5044C63.8668 87.004 67.4612 88.286 67.6066 88.3357C67.7471 87.2413 68.1616 86.2003 68.8118 85.3084C71.0888 81.775 71.6033 79.8505 72.3889 78.8087C72.6431 78.4577 72.9893 78.1843 73.3892 78.0178C73.6815 77.892 74.1184 77.703 74.6449 77.4732ZM79.0566 85.9035V85.9532C78.8457 86.3615 78.6054 86.7539 78.338 87.1283C77.3046 88.6739 75.8274 89.8701 74.101 90.5593C73.8834 90.6346 73.6536 90.7016 73.4231 90.7604C74.3477 91.717 75.1443 92.7889 75.7928 93.9504C75.9615 94.2539 76.1092 94.5688 76.235 94.8927C76.235 94.8927 84.5756 100.048 85.9186 100.793C85.9186 100.793 94.4852 96.2478 97.0967 94.9793C97.0967 94.9793 94.2992 92.1125 93.6943 91.3532L106.746 89.5417L110.156 89.0355L111.68 88.8095C112.504 88.6852 113.244 88.2393 113.74 87.5704C114.235 86.9008 114.445 86.0632 114.324 85.2391C114.203 84.4151 113.76 83.6732 113.093 83.1753C112.426 82.6766 111.588 82.4635 110.764 82.581L109.237 82.8069C109.231 82.8062 109.226 82.8062 109.22 82.8069L105.831 83.3101L89.0514 85.6391C87.9494 84.7074 86.9664 83.643 86.1258 82.4695C86.1258 82.4695 84.77 85.0305 82.3686 85.6655C81.287 85.9389 80.1661 86.0188 79.0566 85.9035Z" fill="#FFE8BB"/>
<path d="M148.124 115.138C142.997 112.486 127.529 103.847 126.457 101.704C125.384 99.5606 119.885 80.2362 113.609 73.1738C112.097 71.4662 101.1 71.8594 101.1 71.8594" stroke="#313553" stroke-width="0.290751" stroke-linecap="round" stroke-linejoin="round"/>
<path d="M67.6056 88.3416C67.4603 88.2919 63.8658 87.0099 62.3684 88.5103C61.9453 88.9276 61.5848 89.4029 61.298 89.9234C60.9167 90.5463 60.7276 91.2679 60.7545 91.9978C60.7813 92.7277 61.0228 93.4328 61.4486 94.0263C61.8109 94.4963 62.2085 94.9377 62.638 95.3467C63.1819 95.8846 63.792 96.463 64.3012 97.0219C64.7271 97.4445 65.0798 97.9349 65.3452 98.4727C65.5175 99.0203 65.646 99.58 65.7293 100.148C66.1187 102.157 66.8547 105.149 69.9475 106.583C74.1588 108.534 95.9071 124.962 112.136 128.11C114.053 128.345 115.992 128.345 117.909 128.11L148.123 146.39" stroke="#313553" stroke-width="0.290751" stroke-linecap="round" stroke-linejoin="round"/>
<path d="M73.4111 90.7578H73.4172C74.3418 91.7144 75.1384 92.7863 75.7869 93.9478C75.9556 94.2513 76.1033 94.5662 76.229 94.8901C76.229 94.8901 84.5697 100.045 85.9127 100.79C85.9127 100.79 94.4794 96.2452 97.0908 94.9767C97.0908 94.9767 94.2933 92.1099 93.6885 91.3506L93.6802 91.3446" stroke="#313553" stroke-width="0.290751" stroke-linecap="round" stroke-linejoin="round"/>
<path d="M64.3013 97.0189C64.3013 97.0189 65.1856 93.8312 65.9207 92.9966C66.6559 92.162 64.772 90.2284 63.5684 89.3652" stroke="#313553" stroke-width="0.290751" stroke-linecap="round" stroke-linejoin="round"/>
<path d="M67.1386 97.5957C66.6867 98.2909 65.5568 99.3349 65.7285 100.143" stroke="#313553" stroke-width="0.290751" stroke-linecap="round" stroke-linejoin="round"/>
<path d="M89.0754 85.6687C89.0754 85.6687 89.0634 85.6596 89.043 85.6423C87.941 84.7105 86.958 83.6462 86.1174 82.4727C86.1174 82.4727 84.7616 85.0337 82.3603 85.6687C81.2816 85.9398 80.1638 86.0189 79.0573 85.9037C78.582 85.8622 78.1097 85.7839 77.6465 85.6687" stroke="#313553" stroke-width="0.290751" stroke-linecap="round" stroke-linejoin="round"/>
<path d="M79.054 85.9545C78.8423 86.3628 78.6028 86.7552 78.3354 87.1296C77.302 88.6745 75.8248 89.8706 74.0984 90.5606C73.8807 90.6359 73.651 90.7029 73.4205 90.7617C73.2925 90.7903 73.1644 90.8167 73.0311 90.837C70.0588 91.3515 67.4707 90.6773 67.6077 88.3363C67.7482 87.2418 68.1627 86.2008 68.8129 85.309C71.09 81.7755 71.6044 79.8502 72.3901 78.8093C72.6442 78.4583 72.9904 78.1848 73.3904 78.0184C73.6917 77.8903 74.1255 77.7013 74.6521 77.4715C76.9698 76.4426 81.1051 74.5437 83.8589 73.1027C87.2349 71.3371 88.3083 71.7213 90.3059 72.5649C92.3035 73.4085 102.508 79.1655 102.508 79.1655" stroke="#313553" stroke-width="0.290751" stroke-linecap="round" stroke-linejoin="round"/>
<path d="M106.366 74.1883C105.403 73.7989 103.411 72.8913 101.099 71.8593C96.3826 69.7502 90.3401 67.1019 89.0754 67.2322C84.3903 67.7067 77.3851 73.6445 74.6455 77.4762" stroke="#313553" stroke-width="0.290751" stroke-linecap="round" stroke-linejoin="round"/>
<path d="M78.335 87.1277L89.0423 85.6415L105.821 83.3125" stroke="#313553" stroke-width="0.290751" stroke-linecap="round" stroke-linejoin="round"/>
<path d="M106.741 89.541L93.6896 91.3526L76.0615 93.8013" stroke="#313553" stroke-width="0.290751" stroke-linecap="round" stroke-linejoin="round"/>
<path d="M58.6567 91.5195L55.2656 93.5759L57.9705 94.2734L58.5776 94.4308L62.5299 95.4514" stroke="#313553" stroke-width="0.290751" stroke-linecap="round" stroke-linejoin="round"/>
<path d="M61.2913 89.9199L58.6572 91.519" stroke="#313553" stroke-width="0.290751" stroke-linecap="round" stroke-linejoin="round"/>
<path d="M110.152 89.0361L106.741 89.5423C105.99 89.5438 105.267 89.2621 104.714 88.7536C104.161 88.2459 103.82 87.5484 103.758 86.7997C103.758 86.7884 103.758 86.7741 103.758 86.7651C103.629 86.0374 103.768 85.2872 104.147 84.6537C104.527 84.0195 105.123 83.5434 105.825 83.3137L109.215 82.8105" stroke="#313553" stroke-width="0.290751" stroke-linecap="round" stroke-linejoin="round"/>
<path d="M110.152 89.0349L111.676 88.8089C112.499 88.6847 113.239 88.2387 113.735 87.5699C114.231 86.9002 114.441 86.0626 114.319 85.2386C114.198 84.4145 113.755 83.6726 113.089 83.1747C112.421 82.6761 111.584 82.4629 110.76 82.5804L109.233 82.8064C109.227 82.8056 109.222 82.8056 109.216 82.8064C109.009 82.8704 107.177 83.4843 107.619 86.4219C107.675 87.0833 107.958 87.7039 108.419 88.1807C108.88 88.6568 109.493 88.9588 110.152 89.0349Z" stroke="#313553" stroke-width="0.290751" stroke-linecap="round" stroke-linejoin="round"/>
<path d="M55.266 93.5752L53.5479 93.7409" stroke="#313553" stroke-width="0.290751" stroke-linecap="round" stroke-linejoin="round"/>
<path d="M27.2623 71.7595H8.89005C7.86045 71.7593 6.87311 71.3502 6.1451 70.6222C5.41709 69.8942 5.00801 68.9068 5.00781 67.8773V26.9711C5.00821 25.9415 5.41735 24.9543 6.14532 24.2263C6.87329 23.4984 7.86051 23.0892 8.89005 23.0889H27.2623C28.2919 23.089 29.2792 23.4981 30.0072 24.2261C30.7352 24.9541 31.1443 25.9415 31.1445 26.9711V67.8773C31.1443 68.9068 30.7352 69.8942 30.0072 70.6222C29.2792 71.3502 28.2919 71.7593 27.2623 71.7595Z" stroke="#313553" stroke-width="0.290751" stroke-linecap="round" stroke-linejoin="round"/>
<path d="M27.2476 69.5H8.9024C8.77563 69.5 8.65007 69.475 8.53294 69.4264C8.41586 69.3779 8.30945 69.3068 8.21985 69.2171C8.13023 69.1274 8.05918 69.0209 8.01073 68.9038C7.96228 68.7866 7.9374 68.6611 7.9375 68.5343V26.9554C7.9372 26.8285 7.96194 26.7028 8.0103 26.5855C8.05865 26.4682 8.12968 26.3615 8.21931 26.2717C8.30894 26.1818 8.41541 26.1105 8.53264 26.0619C8.64984 26.0133 8.77548 25.9883 8.9024 25.9883H27.2476C27.5041 25.9881 27.7501 26.0896 27.9317 26.2707C28.1133 26.4518 28.2156 26.6975 28.2162 26.9539V68.5328C28.2162 68.6599 28.1912 68.7858 28.1425 68.9033C28.0938 69.0207 28.0224 69.1274 27.9324 69.2172C27.8425 69.307 27.7357 69.3783 27.6182 69.4268C27.5007 69.4753 27.3747 69.5001 27.2476 69.5Z" stroke="#313553" stroke-width="0.290751" stroke-linecap="round" stroke-linejoin="round"/>
<path d="M12.7812 24.5107H22.4672" stroke="#313553" stroke-width="0.290751" stroke-linecap="round" stroke-linejoin="round"/>
<path d="M24.18 16.8516H17.623" stroke="#313553" stroke-width="0.290751" stroke-linecap="round" stroke-linejoin="round"/>
<path d="M12.8016 19.3064C14.3209 19.3064 15.5525 18.0748 15.5525 16.5555C15.5525 15.0363 14.3209 13.8047 12.8016 13.8047C11.2824 13.8047 10.0508 15.0363 10.0508 16.5555C10.0508 18.0748 11.2824 19.3064 12.8016 19.3064Z" stroke="#313553" stroke-width="0.290751" stroke-linecap="round" stroke-linejoin="round"/>
<path d="M39.3347 141.143H20.9594C20.4496 141.143 19.9447 141.043 19.4736 140.848C19.0026 140.653 18.5745 140.367 18.214 140.007C17.8535 139.646 17.5676 139.218 17.3725 138.746C17.1774 138.276 17.0771 137.771 17.0771 137.261V96.3541C17.0771 95.8442 17.1774 95.3395 17.3725 94.8687C17.5676 94.3972 17.8535 93.9693 18.2141 93.6093C18.5746 93.2485 19.0026 92.963 19.4737 92.7679C19.9447 92.5728 20.4496 92.4727 20.9594 92.4727H39.3347C40.3641 92.4727 41.3513 92.8817 42.0793 93.6093C42.8073 94.3377 43.2165 95.3244 43.2169 96.3541V137.261C43.2165 138.291 42.8073 139.278 42.0794 140.006C41.3514 140.734 40.3642 141.143 39.3347 141.143Z" stroke="#313553" stroke-width="0.290751" stroke-linecap="round" stroke-linejoin="round"/>
<path d="M39.3172 138.88H20.9705C20.7145 138.88 20.4692 138.778 20.2882 138.597C20.1072 138.416 20.0053 138.171 20.0049 137.915V96.3397C20.0049 96.0836 20.1066 95.838 20.2877 95.6565C20.4688 95.4757 20.7144 95.374 20.9705 95.374H39.3172C39.444 95.374 39.5696 95.3989 39.6866 95.4478C39.8037 95.496 39.9102 95.5669 39.9997 95.6572C40.0894 95.7469 40.1605 95.8531 40.2089 95.9698C40.2573 96.0873 40.2822 96.2131 40.2821 96.3397V137.915C40.2819 138.171 40.1802 138.416 39.9994 138.597C39.8184 138.778 39.5731 138.88 39.3172 138.88Z" stroke="#313553" stroke-width="0.290751" stroke-linecap="round" stroke-linejoin="round"/>
<path d="M24.8457 93.8945H34.5324" stroke="#313553" stroke-width="0.290751" stroke-linecap="round" stroke-linejoin="round"/>
<path d="M36.2491 86.2383H29.6914" stroke="#313553" stroke-width="0.290751" stroke-linecap="round" stroke-linejoin="round"/>
<path d="M27.6178 85.939C27.6179 86.4828 27.4568 87.0146 27.1547 87.4666C26.8526 87.9193 26.4232 88.2718 25.9207 88.4797C25.4183 88.6876 24.8654 88.7426 24.332 88.6364C23.7986 88.5302 23.3086 88.268 22.9241 87.8839C22.5396 87.499 22.2778 87.0086 22.1718 86.4753C22.0659 85.942 22.1205 85.3891 22.3287 84.8867C22.5371 84.3843 22.8897 83.955 23.342 83.6529C23.7944 83.3509 24.3261 83.1904 24.87 83.1904C25.5988 83.1904 26.2977 83.4804 26.813 83.9956C27.3283 84.5109 27.6178 85.2099 27.6178 85.939Z" stroke="#313553" stroke-width="0.290751" stroke-linecap="round" stroke-linejoin="round"/>
<path d="M80.3561 62.7064H61.9837C61.474 62.7065 60.9693 62.6061 60.4984 62.411C60.0275 62.2159 59.5997 61.9299 59.2394 61.5693C58.8791 61.2088 58.5935 60.7807 58.3987 60.3097C58.204 59.8386 58.104 59.3338 58.1045 58.8241V17.9232C58.1041 17.4135 58.2041 16.9088 58.3989 16.4378C58.5937 15.9668 58.8794 15.5388 59.2396 15.1783C59.5999 14.8177 60.0277 14.5317 60.4985 14.3366C60.9694 14.1414 61.474 14.041 61.9837 14.041H80.3561C80.866 14.0406 81.3707 14.1407 81.8422 14.3357C82.313 14.5306 82.7416 14.8166 83.1024 15.1771C83.4624 15.5377 83.7487 15.9658 83.9437 16.4371C84.1388 16.9082 84.2383 17.4133 84.2383 17.9232V58.8241C84.239 59.3341 84.1388 59.8392 83.9437 60.3104C83.7487 60.7816 83.4632 61.2098 83.1024 61.5704C82.7416 61.931 82.3137 62.2169 81.8422 62.4119C81.3707 62.6067 80.866 62.7068 80.3561 62.7064Z" stroke="#313553" stroke-width="0.290751" stroke-linecap="round" stroke-linejoin="round"/>
<path d="M80.3447 60.4475H61.9981C61.7422 60.4467 61.497 60.3446 61.3162 60.1635C61.1353 59.9823 61.0336 59.737 61.0332 59.4811V17.9022C61.0334 17.6463 61.1351 17.4009 61.316 17.2199C61.4969 17.0388 61.7422 16.937 61.9981 16.9365H80.3447C80.6008 16.9367 80.8464 17.0386 81.0271 17.2196C81.2087 17.4007 81.3104 17.6462 81.3104 17.9022V59.4811C81.3104 59.7372 81.2079 59.9826 81.0271 60.1637C80.8464 60.3449 80.6008 60.4469 80.3447 60.4475Z" stroke="#313553" stroke-width="0.290751" stroke-linecap="round" stroke-linejoin="round"/>
<path d="M65.875 15.4609H75.5609" stroke="#313553" stroke-width="0.290751" stroke-linecap="round" stroke-linejoin="round"/>
<path d="M77.2765 7.80176H70.7188" stroke="#313553" stroke-width="0.290751" stroke-linecap="round" stroke-linejoin="round"/>
<path d="M68.6466 7.50865C68.6465 8.05247 68.4852 8.58411 68.1829 9.0362C67.8807 9.48837 67.4511 9.84074 66.9486 10.0488C66.4462 10.2568 65.8933 10.3112 65.3599 10.2051C64.8265 10.099 64.3365 9.83705 63.952 9.45252C63.5674 9.06792 63.3055 8.57801 63.1994 8.04456C63.0932 7.5112 63.1476 6.95831 63.3557 6.45584C63.5638 5.95335 63.9161 5.52384 64.3682 5.2216C64.8204 4.91936 65.352 4.75796 65.8958 4.75781C66.2571 4.75771 66.6149 4.8288 66.9486 4.96701C67.2825 5.10521 67.5857 5.30784 67.8412 5.5633C68.0966 5.81875 68.2993 6.12204 68.4375 6.45584C68.5757 6.78963 68.6468 7.14738 68.6466 7.50865Z" stroke="#313553" stroke-width="0.290751" stroke-linecap="round" stroke-linejoin="round"/>
<path d="M132.847 71.7595H114.475C113.445 71.7593 112.458 71.3502 111.73 70.6222C111.002 69.8942 110.593 68.9068 110.593 67.8773V26.9711C110.594 25.9415 111.003 24.9543 111.73 24.2263C112.459 23.4984 113.445 23.0892 114.475 23.0889H132.847C133.357 23.0887 133.862 23.189 134.333 23.3841C134.804 23.5792 135.232 23.8652 135.593 24.2257C135.953 24.5862 136.239 25.0142 136.434 25.4853C136.629 25.9563 136.729 26.4612 136.729 26.9711V67.8773C136.729 68.3872 136.629 68.8921 136.434 69.3631C136.239 69.8343 135.954 70.2623 135.593 70.6229C135.232 70.9834 134.804 71.2694 134.333 71.4644C133.862 71.6594 133.357 71.7597 132.847 71.7595Z" stroke="#313553" stroke-width="0.290751" stroke-linecap="round" stroke-linejoin="round"/>
<path d="M132.836 69.5004H114.489C114.233 69.5001 113.988 69.3981 113.808 69.2171C113.626 69.0361 113.524 68.7907 113.524 68.5348V26.9559C113.525 26.7 113.627 26.4548 113.808 26.2738C113.988 26.0928 114.233 25.9908 114.489 25.9902H132.836C133.092 25.9908 133.337 26.0928 133.518 26.2738C133.699 26.4547 133.801 26.6999 133.802 26.9559V68.5348C133.802 68.7908 133.699 69.0361 133.518 69.2171C133.338 69.3981 133.092 69.5001 132.836 69.5004Z" stroke="#313553" stroke-width="0.290751" stroke-linecap="round" stroke-linejoin="round"/>
<path d="M118.367 24.5107H128.053" stroke="#313553" stroke-width="0.290751" stroke-linecap="round" stroke-linejoin="round"/>
<path d="M129.766 16.8516H123.208" stroke="#313553" stroke-width="0.290751" stroke-linecap="round" stroke-linejoin="round"/>
<path d="M118.387 19.3064C119.906 19.3064 121.137 18.0748 121.137 16.5555C121.137 15.0363 119.906 13.8047 118.387 13.8047C116.867 13.8047 115.636 15.0363 115.636 16.5555C115.636 18.0748 116.867 19.3064 118.387 19.3064Z" stroke="#313553" stroke-width="0.290751" stroke-linecap="round" stroke-linejoin="round"/>
<path d="M49.0758 112.001C49.0755 112.276 48.9939 112.544 48.841 112.772C48.6883 113 48.4713 113.178 48.2175 113.283C47.9637 113.388 47.6846 113.415 47.4152 113.361C47.1459 113.308 46.8986 113.175 46.7045 112.982C46.5103 112.787 46.3781 112.539 46.3245 112.27C46.271 112.001 46.2985 111.721 46.4035 111.468C46.5086 111.214 46.6865 110.998 46.9148 110.845C47.1431 110.692 47.4114 110.61 47.6861 110.61C47.8687 110.61 48.0495 110.647 48.2182 110.716C48.3869 110.786 48.5402 110.888 48.6693 111.017C48.7983 111.147 48.9007 111.3 48.9704 111.468C49.0402 111.637 49.076 111.819 49.0758 112.001Z" stroke="#313553" stroke-width="0.290751" stroke-linecap="round" stroke-linejoin="round"/>
<path d="M49.0768 124.065C49.0772 124.34 48.9962 124.609 48.8439 124.838C48.6916 125.066 48.4748 125.245 48.2211 125.35C47.9674 125.456 47.6881 125.484 47.4185 125.43C47.1489 125.377 46.9012 125.245 46.7067 125.051C46.5122 124.857 46.3796 124.609 46.3258 124.34C46.2719 124.071 46.2992 123.791 46.4041 123.537C46.509 123.284 46.687 123.066 46.9153 122.914C47.1437 122.761 47.4122 122.679 47.687 122.679C47.8694 122.679 48.0499 122.714 48.2185 122.783C48.3871 122.853 48.5402 122.955 48.6693 123.084C48.7984 123.213 48.9008 123.366 48.9707 123.534C49.0406 123.702 49.0767 123.883 49.0768 124.065Z" stroke="#313553" stroke-width="0.290751" stroke-linecap="round" stroke-linejoin="round"/>
<path d="M49.2217 124.065H86.4468V117.127" stroke="#313553" stroke-width="0.290751" stroke-linecap="round" stroke-linejoin="round"/>
<path d="M35.6199 31.2808C36.3862 31.2808 37.0074 30.6596 37.0074 29.8933C37.0074 29.127 36.3862 28.5059 35.6199 28.5059C34.8536 28.5059 34.2324 29.127 34.2324 29.8933C34.2324 30.6596 34.8536 31.2808 35.6199 31.2808Z" stroke="#313553" stroke-width="0.290751" stroke-linecap="round" stroke-linejoin="round"/>
<path d="M37.0068 29.8945H47.6855V74.0954H77.5267" stroke="#313553" stroke-width="0.290751" stroke-linecap="round" stroke-linejoin="round"/>
<path d="M51.3809 93.7415H49.0752V78.8115H72.3827H72.3857" stroke="#313553" stroke-width="0.290751" stroke-linecap="round" stroke-linejoin="round"/>
<path d="M108.331 29.2441C108.331 29.5185 108.249 29.7869 108.097 30.0152C107.945 30.2435 107.728 30.4214 107.475 30.5265C107.221 30.6316 106.943 30.6593 106.673 30.6058C106.404 30.5523 106.157 30.4202 105.963 30.2262C105.768 30.0322 105.636 29.785 105.582 29.5158C105.529 29.2467 105.557 28.9676 105.661 28.7141C105.767 28.4605 105.945 28.2438 106.173 28.0913C106.4 27.9388 106.669 27.8574 106.943 27.8574C107.311 27.8576 107.664 28.0038 107.924 28.2637C108.184 28.5237 108.33 28.8763 108.331 29.2441Z" stroke="#313553" stroke-width="0.290751" stroke-linecap="round" stroke-linejoin="round"/>
<path d="M88.8455 23.9966C89.6115 23.9966 90.2329 23.3754 90.2329 22.6091C90.2329 21.8428 89.6115 21.2217 88.8455 21.2217C88.0794 21.2217 87.458 21.8428 87.458 22.6091C87.458 23.3754 88.0794 23.9966 88.8455 23.9966Z" stroke="#313553" stroke-width="0.290751" stroke-linecap="round" stroke-linejoin="round"/>
<path d="M106.944 42.7007C107.71 42.7007 108.332 42.0795 108.332 41.3133C108.332 40.547 107.71 39.9258 106.944 39.9258C106.178 39.9258 105.557 40.547 105.557 41.3133C105.557 42.0795 106.178 42.7007 106.944 42.7007Z" stroke="#313553" stroke-width="0.290751" stroke-linecap="round" stroke-linejoin="round"/>
<path d="M106.944 48.7359C107.71 48.7359 108.332 48.1147 108.332 47.3483C108.332 46.5821 107.71 45.9609 106.944 45.9609C106.178 45.9609 105.557 46.5821 105.557 47.3483C105.557 48.1147 106.178 48.7359 106.944 48.7359Z" stroke="#313553" stroke-width="0.290751" stroke-linecap="round" stroke-linejoin="round"/>
<path d="M108.331 53.3809C108.33 53.6552 108.249 53.9233 108.096 54.1511C107.943 54.379 107.726 54.5564 107.473 54.6611C107.219 54.7658 106.94 54.793 106.671 54.7392C106.402 54.6854 106.155 54.5531 105.961 54.3589C105.767 54.1648 105.636 53.9176 105.582 53.6485C105.529 53.3794 105.557 53.1006 105.662 52.8472C105.767 52.5938 105.944 52.3772 106.173 52.2249C106.401 52.0725 106.669 51.9912 106.943 51.9912C107.126 51.9912 107.306 52.0271 107.475 52.097C107.643 52.1669 107.796 52.2693 107.925 52.3983C108.054 52.5274 108.156 52.6807 108.226 52.8492C108.295 53.0179 108.331 53.1985 108.331 53.3809Z" stroke="#313553" stroke-width="0.290751" stroke-linecap="round" stroke-linejoin="round"/>
<path d="M88.8467 23.9961V41.3131H95.3893H105.559" stroke="#313553" stroke-width="0.290751" stroke-linecap="round" stroke-linejoin="round"/>
<path d="M105.556 47.3477H100.921V71.5561" stroke="#313553" stroke-width="0.290751" stroke-linecap="round" stroke-linejoin="round"/>
<path d="M105.558 53.3818H103.737V71.5568" stroke="#313553" stroke-width="0.290751" stroke-linecap="round" stroke-linejoin="round"/>
<path d="M105.556 29.2451H95.3867V41.3135V69.1947" stroke="#313553" stroke-width="0.290751" stroke-linecap="round" stroke-linejoin="round"/>
<path d="M18.0764 46.2056C22.3309 46.2056 25.7798 42.7568 25.7798 38.5022C25.7798 34.2478 22.3309 30.7988 18.0764 30.7988C13.822 30.7988 10.373 34.2478 10.373 38.5022C10.373 42.7568 13.822 46.2056 18.0764 46.2056Z" stroke="#313553" stroke-width="0.290751" stroke-linecap="round" stroke-linejoin="round"/>
<path d="M10.5771 50.7285H24.6725" stroke="#313553" stroke-width="0.290751" stroke-linecap="round" stroke-linejoin="round"/>
<path d="M10.5771 55.2539H24.6725" stroke="#313553" stroke-width="0.290751" stroke-linecap="round" stroke-linejoin="round"/>
<path d="M10.5771 59.7783H24.6725" stroke="#313553" stroke-width="0.290751" stroke-linecap="round" stroke-linejoin="round"/>
<path d="M36.633 99.0996H22.75V105.369H36.633V99.0996Z" stroke="#313553" stroke-width="0.290751" stroke-linecap="round" stroke-linejoin="round"/>
<path d="M36.633 108.15H22.75V114.42H36.633V108.15Z" stroke="#313553" stroke-width="0.290751" stroke-linecap="round" stroke-linejoin="round"/>
<path d="M36.633 117.199H22.75V134.516H36.633V117.199Z" stroke="#313553" stroke-width="0.290751" stroke-linecap="round" stroke-linejoin="round"/>
<path d="M127.715 33.9474C127.715 34.749 127.478 35.5326 127.033 36.1992C126.587 36.8658 125.955 37.3854 125.214 37.6924C124.474 37.9994 123.66 38.0799 122.873 37.9238C122.087 37.7676 121.365 37.3819 120.798 36.8152C120.231 36.2486 119.844 35.5267 119.689 34.7406C119.532 33.9545 119.612 33.1396 119.918 32.3991C120.225 31.6585 120.744 31.0254 121.41 30.58C122.077 30.1345 122.86 29.8966 123.662 29.8965C124.737 29.8963 125.767 30.323 126.527 31.0826C127.287 31.8423 127.714 32.8728 127.715 33.9474Z" stroke="#313553" stroke-width="0.290751" stroke-linecap="round" stroke-linejoin="round"/>
<path d="M117.952 42.0986H129.372" stroke="#313553" stroke-width="0.290751" stroke-linecap="round" stroke-linejoin="round"/>
<path d="M117.952 45.1143H129.372" stroke="#313553" stroke-width="0.290751" stroke-linecap="round" stroke-linejoin="round"/>
<path d="M127.715 52.9504C127.715 53.7518 127.477 54.5352 127.031 55.2013C126.586 55.8676 125.953 56.3867 125.213 56.6933C124.473 56.9998 123.658 57.0798 122.872 56.9234C122.086 56.7669 121.364 56.3809 120.797 55.8142C120.23 55.2474 119.845 54.5255 119.688 53.7394C119.532 52.9534 119.612 52.1387 119.919 51.3983C120.225 50.6579 120.745 50.025 121.411 49.5797C122.077 49.1344 122.861 48.8966 123.662 48.8965C124.195 48.8964 124.722 49.0012 125.214 49.2049C125.706 49.4086 126.152 49.7072 126.529 50.0837C126.905 50.4601 127.204 50.9071 127.407 51.399C127.611 51.8908 127.715 52.418 127.715 52.9504Z" stroke="#313553" stroke-width="0.290751" stroke-linecap="round" stroke-linejoin="round"/>
<path d="M117.952 61.1025H129.372" stroke="#313553" stroke-width="0.290751" stroke-linecap="round" stroke-linejoin="round"/>
<path d="M117.952 64.1201H129.372" stroke="#313553" stroke-width="0.290751" stroke-linecap="round" stroke-linejoin="round"/>
<path d="M49.0752 112.001H78.3348" stroke="#313553" stroke-width="0.290751" stroke-linecap="round" stroke-linejoin="round"/>
</svg>
